<svg width="61" height="44" viewBox="0 0 61 44" xmlns="http://www.w3.org/2000/svg" xmlns:xlink="http://www.w3.org/1999/xlink">
  <defs>
    <path id="a" d="M.133 21.806c0 11.598 9.402 21 21 21s21-9.402 21-21c0-11.597-9.402-21-21-21s-21 9.403-21 21"/>
    <path id="c" d="M.133 21.806c0 11.598 9.402 21 21 21s21-9.402 21-21c0-11.597-9.402-21-21-21s-21 9.403-21 21z"/>
  </defs>
  <g fill="none" fill-rule="evenodd">
    <g transform="translate(1)">
      <mask id="b" fill="#fff">
        <use xlink:href="#a"/>
      </mask>
      <path d="M43.363 21.806c0 12.277-9.953 22.23-22.23 22.23-12.277 0-22.23-9.953-22.23-22.23 0-12.277 9.953-22.23 22.23-22.23 12.277 0 22.23 9.954 22.23 22.23" fill="#9B9B9B" mask="url(#b)"/>
      <mask id="d" fill="#fff">
        <use xlink:href="#c"/>
      </mask>
      <path d="M17.262 43.273h-6.8V21.83h6.8v21.443z" fill="#FF7555" mask="url(#d)"/>
      <path d="M14.464 43.273h2.798V21.83h-2.798v21.443z" fill="#F96335" mask="url(#d)"/>
      <path d="M17.262 43.273h-6.8V21.83h6.8v21.443zM14.416 35.76V25.632" stroke="#5E4634" stroke-linecap="round" stroke-linejoin="round" mask="url(#d)"/>
      <path d="M22.74 33.572l-5.256-4.402h-.058c-.62.493-1.295.925-2.006 1.338-.524.55-1.408.632-2.08.285-.034-.017-.066-.04-.1-.058-.163-.06-.318-.155-.465-.275-.042-.026-.086-.05-.13-.076l-.023-.015-.02-.01c-.083-.028-.262-.1-.274-.104-.56-.19-.965-.588-1.14-1.086h-.798l-5.256 4.402c-.603.505-.952 1.252-.952 2.04v32.667c0 1.026.586 1.96 1.513 2.4 1.635.78 4.514 1.82 8.242 1.82 3.73 0 6.61-1.04 8.244-1.82.927-.442 1.51-1.375 1.51-2.4V35.61c0-.786-.348-1.533-.95-2.038" fill="#CCC" mask="url(#d)"/>
      <path d="M17.483 29.17l-1.73 1.2c-.822.57-1.893.633-2.777.166L10.39 29.17l-5.256 4.4c-.604.508-.952 1.255-.952 2.04v32.67c0 1.026.586 1.96 1.513 2.4 1.634.78 4.514 1.82 8.24 1.82 3.73 0 6.61-1.04 8.245-1.82.926-.443 1.51-1.375 1.51-2.4V35.61c0-.785-.348-1.532-.952-2.038l-5.255-4.403zM4.32 35.14c1.733 4.87 17.5 4.865 19.233 0" stroke="#5E4634" stroke-linecap="round" stroke-linejoin="round" mask="url(#d)"/>
      <path d="M25.806 16.16c-1.078 2.96-4.352 4.487-7.314 3.41-2.96-1.078-4.488-4.353-3.41-7.314 1.077-2.962 4.352-4.49 7.313-3.41 2.962 1.077 4.49 4.35 3.41 7.313" fill="#CCC" mask="url(#d)"/>
      <path d="M25.61 16.088c-1.038 2.854-4.193 4.325-7.047 3.286-2.853-1.038-4.324-4.194-3.286-7.047 1.04-2.854 4.194-4.325 7.048-3.287 2.853 1.04 4.325 4.194 3.286 7.048z" stroke="#5F4735" stroke-linecap="round" stroke-linejoin="round" mask="url(#d)"/>
      <path d="M23.718 35.388L.256 27.715c-3.41-1.115-3.74-5.812-.517-7.39L21.904 9.46" fill="#F96335" mask="url(#d)"/>
      <path d="M39.27 21.274c-.54-7.71-6.334-13.586-12.943-13.124-6.61.462-11.53 7.087-10.99 14.798.54 7.71 6.334 13.586 12.943 13.124 6.61-.462 11.53-7.088 10.99-14.798" fill="#F96335" mask="url(#d)"/>
      <path d="M39.27 21.274c-.54-7.71-6.334-13.586-12.943-13.124-6.61.462-11.53 7.087-10.99 14.798.54 7.71 6.334 13.586 12.943 13.124 6.61-.462 11.53-7.088 10.99-14.798z" stroke="#5F4735" stroke-linecap="round" stroke-linejoin="round" mask="url(#d)"/>
      <path d="M20.608 22.58c.347 4.956 4.072 8.733 8.32 8.436 4.25-.297 7.412-4.556 7.066-9.513-.347-4.957-4.072-8.734-8.32-8.437-4.25.297-7.413 4.556-7.066 9.513" fill="#E05332" mask="url(#d)"/>
      <path d="M20.608 22.58c.347 4.956 4.072 8.733 8.32 8.436 4.25-.297 7.412-4.556 7.066-9.513-.347-4.957-4.072-8.734-8.32-8.437-4.25.297-7.413 4.556-7.066 9.513z" stroke="#5F4735" stroke-linecap="round" stroke-linejoin="round" mask="url(#d)"/>
      <path d="M20.632 22.92c1.01-3.603 3.807-6.282 7.274-6.525 3.467-.242 6.61 2.022 8.112 5.448" stroke="#5F4735" stroke-linecap="round" stroke-linejoin="round" mask="url(#d)"/>
      <path d="M23.718 35.388L.256 27.715c-3.41-1.115-3.74-5.812-.517-7.39L21.904 9.46" stroke="#5F4735" stroke-linecap="round" stroke-linejoin="round" mask="url(#d)"/>
      <path d="M13.483 19.185c-1.04 2.854-4.195 4.326-7.05 3.287-2.854-1.04-4.326-4.195-3.287-7.05 1.04-2.854 4.195-4.325 7.05-3.286 2.854 1.04 4.326 4.195 3.287 7.05" fill="#CCC" mask="url(#d)"/>
      <path d="M13.483 19.185c-1.04 2.854-4.195 4.326-7.05 3.287-2.854-1.04-4.326-4.195-3.287-7.05 1.04-2.854 4.195-4.325 7.05-3.286 2.854 1.04 4.326 4.195 3.287 7.05z" stroke="#5F4735" stroke-linecap="round" stroke-linejoin="round" mask="url(#d)"/>
      <path d="M9.3 16.845c.582 1.25.04 2.738-1.21 3.32-1.25.584-2.738.043-3.32-1.208-.584-1.25-.043-2.737 1.208-3.32 1.25-.584 2.738-.043 3.32 1.208" fill="#5F4735" mask="url(#d)"/>
    </g>
    <path d="M43.133 21.806c0 11.598-9.402 21-21 21s-21-9.4-21-21c0-11.598 9.402-21 21-21s21 9.402 21 21z" stroke="#5E4634" stroke-linecap="round" stroke-linejoin="round"/>
    <path d="M55.418 4.928c-.537.14-.913.34-1.358.694-.196.155-.368.335-.554.502-.138.14-.285.268-.442.386-.352.42-.797.397-1.334-.074.533-.55-.287-1.37-.84-.84-1.08 1.367-2.218 2.687-3.283 4.066-.277.36.312.79.62.48.852-.862 1.673-1.753 2.5-2.64.153.227.36.425.623.56 1.76.902 3.002-1.474 4.402-1.92.768-.247.454-1.423-.334-1.215M54.563 37.616c-.896-.034-1.722-.156-2.545-.397.304-.336.543-.72.72-1.183.12-.316-.188-.667-.502-.66-1.353.035-2.616-.168-3.907-.573-.427-.134-.578.497-.18.655 1.056.42 2.147.688 3.264.852-.19.252-.423.46-.728.643-.432.26-.28.81.128.98 1.203.505 2.443.782 3.75.775.705-.004.7-1.068 0-1.094M59.506 21.278c-1.01.565-3.613 2.558-4.035.068-.063-.378-.52-.468-.808-.33-1.215.585-2.45 1.127-3.644 1.75-.358.187-.112.786.277.658 1.1-.365 2.177-.79 3.26-1.2.83 2.345 4.19 1.29 5.576-.136.41-.42-.11-1.098-.624-.81" fill="#F96335"/>
  </g>
</svg>
