<svg xmlns="http://www.w3.org/2000/svg" width="32" height="32">
  <g fill="none" fill-rule="evenodd">
    <path d="M0 0h32v32H0z"/>
    <path fill="#FFCCA9" d="M16.125 19.8218c-2.162 0-4.195.842-5.726 2.371-.526.527-.526 1.385.001 1.911.526.527 1.384.527 1.912 0 1.017-1.018 2.372-1.579 3.813-1.579 1.44 0 2.795.561 3.813 1.579.256.256.595.396.956.396s.701-.14.955-.396c.255-.255.396-.594.396-.954 0-.362-.141-.701-.395-.957-1.53-1.529-3.562-2.371-5.725-2.371"/>
    <path fill="#FFCCA9" d="M16.125 13.9956c-3.392 0-6.58 1.321-8.979 3.719-.526.527-.526 1.384.001 1.911.255.255.595.396.956.396s.7-.141.956-.396c3.895-3.898 10.237-3.896 14.132 0 .256.255.596.396.955.396.362 0 .701-.141.956-.396s.396-.595.396-.956-.141-.7-.395-.955c-2.399-2.398-5.586-3.719-8.978-3.719"/>
    <path fill="#FFCCA9" d="M28.3535 13.2363c-6.744-6.743-17.717-6.741-24.457 0-.256.255-.397.595-.397.956 0 .36.141.7.396.955.256.256.595.396.955.396.361 0 .7-.14.955-.396 5.691-5.687 14.948-5.687 20.637 0 .256.256.595.396.956.396.359 0 .699-.14.956-.396.526-.527.526-1.384-.001-1.911"/>
    <path stroke="#5F4735" d="M16.125 19.8218c-2.162 0-4.195.842-5.726 2.371-.526.527-.526 1.385.001 1.911.526.527 1.384.527 1.912 0 1.017-1.018 2.372-1.579 3.813-1.579 1.44 0 2.795.561 3.813 1.579.256.256.595.396.956.396s.701-.14.955-.396c.255-.255.396-.594.396-.954 0-.362-.141-.701-.395-.957-1.53-1.529-3.562-2.371-5.725-2.371z" stroke-linecap="round" stroke-linejoin="round"/>
    <path stroke="#5F4735" d="M16.125 13.9956c-3.392 0-6.58 1.321-8.979 3.719-.526.527-.526 1.384.001 1.911.255.255.595.396.956.396s.7-.141.956-.396c3.895-3.898 10.237-3.896 14.132 0 .256.255.596.396.955.396.362 0 .701-.141.956-.396s.396-.595.396-.956-.141-.7-.395-.955c-2.399-2.398-5.586-3.719-8.978-3.719z" stroke-linecap="round" stroke-linejoin="round"/>
    <path stroke="#5F4735" d="M28.3535 13.2363c-6.744-6.743-17.717-6.741-24.457 0-.256.255-.397.595-.397.956 0 .36.141.7.396.955.256.256.595.396.955.396.361 0 .7-.14.955-.396 5.691-5.687 14.948-5.687 20.637 0 .256.256.595.396.956.396.359 0 .699-.14.956-.396.526-.527.526-1.384-.001-1.911z" stroke-linecap="round" stroke-linejoin="round"/>
  </g>
</svg>