<svg xmlns="http://www.w3.org/2000/svg" width="23" height="24">
  <g fill="none" fill-rule="evenodd">
    <path d="M-5-4h32v32H-5z"/>
    <path fill="#C2C4F7" d="M2.5 20.5L9.638 2.272c.663-1.694 3.061-1.694 3.724 0L20.5 20.5"/>
    <path fill="#B1B2E6" d="M11.2656 16.9917c-2.75 0-5.002-.764-6.78-2.005l-1.986 5.513h18l-2.081-5.778c-1.829 1.403-4.212 2.27-7.153 2.27"/>
    <path stroke="#5F4735" d="M2.5 20.5L9.638 2.272c.663-1.694 3.061-1.694 3.724 0L20.5 20.5" stroke-linecap="round" stroke-linejoin="round"/>
    <path fill="#C2C4F7" d="M21 23.5H2c-.825 0-1.5-.675-1.5-1.5s.675-1.5 1.5-1.5h19c.825 0 1.5.675 1.5 1.5s-.675 1.5-1.5 1.5"/>
    <path stroke="#5F4735" d="M21 23.5H2c-.825 0-1.5-.675-1.5-1.5s.675-1.5 1.5-1.5h19c.825 0 1.5.675 1.5 1.5s-.675 1.5-1.5 1.5zM14.472 6.4281c0 .552-.448 1-1 1s-1-.448-1-1 .448-1 1-1 1 .448 1 1zm-4.2063-4.4206c.552 0 1 .448 1 1s-.448 1-1 1c-.201 0-.387-.059-.544-.161" stroke-linecap="round" stroke-linejoin="round"/>
    <path fill="#5F4735" d="M10.4121 7.6786c0 .276-.224.5-.5.5s-.5-.224-.5-.5.224-.5.5-.5.5.224.5.5M12 13.3513c0 .276-.224.5-.5.5s-.5-.224-.5-.5.224-.5.5-.5.5.224.5.5m3.8417-1.4735c0 .276-.224.5-.5.5s-.5-.224-.5-.5.224-.5.5-.5.5.224.5.5m-8.9814 6.2331c0 .276-.224.5-.5.5s-.5-.224-.5-.5.224-.5.5-.5.5.224.5.5"/>
    <path stroke="#5F4735" d="M6.6407 10.5002l.515 1.565 1.727.251-1.25 1.219.295 1.72-1.545-.812-1.545.812m9.6343-.0706l.539 1.091 1.204.175-.872.85.206 1.199-1.077-.566-1.077.566.205-1.199-.871-.85 1.204-.175.539-1.091z" stroke-linecap="round" stroke-linejoin="round"/>
  </g>
</svg>
