<svg xmlns="http://www.w3.org/2000/svg" width="30" height="30">
  <g fill="none" fill-rule="evenodd" transform="translate(5 5)">
    <rect width="22" height="22" fill="#FFF" stroke="#D9DCDE" rx="15"/>
    <path fill="#E05332" d="M12.07027027 10.85945946l2.83243243-2.83243243c.12972973-.12972973.12972973-.32432433 0-.45405406l-.45405405-.45405405c-.12972973-.12972973-.32432433-.12972973-.45405406 0l-2.83243245 2.83243243c-.08648648.0864865-.2162162.0864865-.3027027 0L8.02702703 7.0972973c-.12972973-.12972973-.32432433-.12972973-.45405406 0l-.45405405.45405405c-.12972973.12972973-.12972973.32432433 0 .45405406l2.83243243 2.83243245c.0864865.08648648.0864865.2162162 0 .3027027L7.0972973 13.9945946c-.12972973.12972972-.12972973.32432432 0 .45405405l.45405405.45405405c.12972973.12972973.32432433.12972973.45405406 0l2.85405407-2.83243243c.0864865-.0864865.21621622-.0864865.3027027 0l2.83243243 2.83243243c.12972972.12972973.32432432.12972973.45405405 0l.45405405-.45405405c.12972973-.12972973.12972973-.32432433 0-.45405406l-2.83243243-2.83243245c-.06486486-.08648648-.06486486-.2162162 0-.3027027z"/>
  </g>
</svg>
