<svg xmlns="http://www.w3.org/2000/svg" width="30" height="30">
  <g fill="none" fill-rule="evenodd" transform="translate(4 4)">
    <rect width="22" height="22" fill="#FFF" stroke="#D9DCDE" rx="15"/>
    <path fill="#747F8D" d="M8 8.17228464c0 .54382023.4109589.99700375.9041096.99700375.49315067 0 .90410958-.45318354.90410958-.99700377 0-1.08764045 1.06849312-1.1329588 1.19178082-1.1329588.1232877 0 1.1917808.04531835 1.1917808 1.1329588v.22659176c0 .45318352-.2054794.81573033-.5753424 1.0423221l-.8219179.49850186c-.4520547.27191013-.6986301.77041203-.6986301 1.31423223v.8157303c0 .5438202.4109589.9970038.9041096.9970038.4931507 0 .9041096-.4531836.9041096-.9970038v-.4985019l.5753425-.3172284C13.4246575 10.7101124 14 9.6224719 14 8.44419475v-.27191012C14 6.08764044 12.4794521 5 11 5 9.47945205 5 8 6.08764045 8 8.17228464zM11 13.8c-1.33333333 0-1.33333333 2.2 0 2.2 1.3333333 0 1.3333333-2.2 0-2.2z"/>
  </g>
</svg>