<svg xmlns="http://www.w3.org/2000/svg" width="32" height="32">
  <g fill="none" fill-rule="evenodd">
    <path d="M0 0h32v32H0z"/>
    <path fill="#C2C4F7" d="M7.5 24.5l7.138-18.228c.663-1.694 3.061-1.694 3.724 0L25.5 24.5"/>
    <path fill="#B1B2E6" d="M16.2656 20.9917c-2.75 0-5.002-.764-6.78-2.005l-1.986 5.513h18l-2.081-5.778c-1.829 1.403-4.212 2.27-7.153 2.27"/>
    <path stroke="#5F4735" d="M7.5 24.5l7.138-18.228c.663-1.694 3.061-1.694 3.724 0L25.5 24.5" stroke-linecap="round" stroke-linejoin="round"/>
    <path fill="#C2C4F7" d="M26 27.5H7c-.825 0-1.5-.675-1.5-1.5s.675-1.5 1.5-1.5h19c.825 0 1.5.675 1.5 1.5s-.675 1.5-1.5 1.5"/>
    <path stroke="#5F4735" d="M26 27.5H7c-.825 0-1.5-.675-1.5-1.5s.675-1.5 1.5-1.5h19c.825 0 1.5.675 1.5 1.5s-.675 1.5-1.5 1.5zm-6.528-17.0719c0 .552-.448 1-1 1s-1-.448-1-1 .448-1 1-1 1 .448 1 1zm-4.2063-4.4206c.552 0 1 .448 1 1s-.448 1-1 1c-.201 0-.387-.059-.544-.161" stroke-linecap="round" stroke-linejoin="round"/>
    <path fill="#5F4735" d="M15.4121 11.6786c0 .276-.224.5-.5.5s-.5-.224-.5-.5.224-.5.5-.5.5.224.5.5M17 17.3513c0 .276-.224.5-.5.5s-.5-.224-.5-.5.224-.5.5-.5.5.224.5.5m3.8417-1.4735c0 .276-.224.5-.5.5s-.5-.224-.5-.5.224-.5.5-.5.5.224.5.5m-8.9814 6.2331c0 .276-.224.5-.5.5s-.5-.224-.5-.5.224-.5.5-.5.5.224.5.5"/>
    <path stroke="#5F4735" d="M11.6407 14.5002l.515 1.565 1.727.251-1.25 1.219.295 1.72-1.545-.812-1.545.812m9.6343-.0706l.539 1.091 1.204.175-.872.85.206 1.199-1.077-.566-1.077.566.205-1.199-.871-.85 1.204-.175.539-1.091z" stroke-linecap="round" stroke-linejoin="round"/>
  </g>
</svg>