<svg xmlns="http://www.w3.org/2000/svg" width="24" height="24">
  <path fill="#5E4634" fill-rule="evenodd" d="M3.103809 2C2.49412876 2 2 2.49405382 2 3.103809v17.792382C2 21.5057963 2.49412876 22 3.103809 22h9.5787841v-7.7450224H10.07624v-3.0184267h2.6063531V9.01057348c0-2.58327274 1.5777799-3.9898986 3.8822154-3.9898986 1.103809 0 2.0525752.0822049 2.3290145.1189236v2.69964856l-1.5982375.00074937c-1.2533065 0-1.4959497.59551735-1.4959497 1.4694223v1.9271322h2.9889769l-.3892182 3.0184267h-2.5997587V22h5.0965552C21.5057963 22 22 21.5057963 22 20.896191V3.103809C22 2.49405382 21.5057963 2 20.896191 2H3.103809z"/>
</svg>