<svg xmlns="http://www.w3.org/2000/svg" width="27" height="21">
  <g fill="none" fill-rule="evenodd">
    <path d="M-3-6h32v32H-3z"/>
    <path fill="#FF7555" d="M12.1999 20.0487L.8709 7.9177c-.399-.428-.422-1.084-.053-1.538l4.094-5.036c.223-.274.556-.432.909-.432h14.47c.352 0 .686.159.908.433l4.094 5.036c.369.454.347 1.11-.052 1.538l-11.329 12.13c-.463.496-1.249.496-1.712 0"/>
    <path fill="#ED6F56" d="M2.715 9.8921h20.682l1.844-1.974c.264-.283.352-.666.281-1.025H.589c-.071.359.017.741.282 1.024l1.844 1.975z"/>
    <path stroke="#5F4735" d="M12.3249 20.1825L.7689 7.8085c-.341-.365-.36-.926-.045-1.313l4.24-5.215c.19-.234.475-.369.776-.369h14.632c.301.001.586.136.776.37l4.239 5.214c.316.388.296.949-.045 1.314l-11.555 12.373c-.396.423-1.067.423-1.462 0zM.7116 7.1716h24.688" stroke-linecap="round" stroke-linejoin="round"/>
    <path stroke="#5F4735" d="M13.0557 1.3166l-5.067 5.855-2.725-5.855" stroke-linecap="round" stroke-linejoin="round"/>
    <path stroke="#5F4735" d="M20.8259 1.3166l-2.725 5.855-5.067-5.855m-5.0452 5.855l5.067 13.229 5.045-13.229" stroke-linecap="round" stroke-linejoin="round"/>
  </g>
</svg>
