<svg xmlns="http://www.w3.org/2000/svg" width="24" height="24">
  <path fill="#5E4634" fill-rule="evenodd" d="M23 5.62580645c-.7806452.3548387-1.6322581.56774194-2.483871.70967742.9225807-.56774193 1.5612904-1.41935484 1.9161291-2.41290322-.8516129.4967742-1.7741936.8516129-2.767742 1.06451612-.7806451-.8516129-1.916129-1.3483871-3.1935484-1.3483871-2.4129032 0-4.4 1.98709678-4.4 4.4 0 .35483872.0709678.70967743.1419355.9935484C8.5935484 8.7483871 5.32903226 7.04516127 3.2 4.3483871c-.3548387.63870967-.56774194 1.41935484-.56774194 2.2 0 1.49032258.78064517 2.83870967 1.91612904 3.6193548-.70967742 0-1.41935484-.2129032-1.98709678-.5677419v.07096774c0 2.12903226 1.49032258 3.90322576 3.47741936 4.25806456-.3548387.0709677-.78064516.1419354-1.13548387.1419354-.28387093 0-.5677419 0-.8516129-.0709677.56774197 1.7032258 2.2 2.9806452 4.0451613 3.0516129-1.4903226 1.2064516-3.4064516 1.8451613-5.3935484 1.8451613-.3548387 0-.7096774 0-1.0645161-.0709677 1.91612904 1.2064516 4.2580645 1.9870967 6.67096775 1.9870967 8.01935488 0 12.41935488-6.6709677 12.41935488-12.4193548v-.56774195c.9225806-.56774193 1.7032258-1.3483871 2.2709677-2.2z"/>
</svg>