<svg xmlns="http://www.w3.org/2000/svg" width="32" height="32">
  <g fill="none" fill-rule="evenodd">
    <path d="M0 0h32v32H0z"/>
    <path fill="#BBC1C4" d="M26.033 18.2844l-8.266 6.763c-.737.603-1.797.603-2.533 0l-8.267-6.763c-.928-.76-1.467-1.896-1.467-3.096v-9.577c0-.902.604-1.692 1.474-1.929 6.237-1.701 12.815-1.701 19.052 0 .87.237 1.474 1.027 1.474 1.929v9.577c0 1.2-.538 2.336-1.467 3.096"/>
    <path stroke="#5F4735" d="M26.033 18.2844l-8.266 6.763c-.737.603-1.797.603-2.533 0l-8.267-6.763c-.928-.76-1.467-1.896-1.467-3.096v-9.577c0-.902.604-1.692 1.474-1.929 6.237-1.701 12.815-1.701 19.052 0 .87.237 1.474 1.027 1.474 1.929v9.577c0 1.2-.538 2.336-1.467 3.096z" stroke-linecap="round" stroke-linejoin="round"/>
    <path fill="#BBC1C4" d="M26.033 21.2844l-8.266 6.763c-.737.603-1.797.603-2.533 0l-8.267-6.763c-.928-.76-1.467-1.896-1.467-3.096v-9.577c0-.902.604-1.692 1.474-1.929 6.237-1.701 12.815-1.701 19.052 0 .87.237 1.474 1.027 1.474 1.929v9.577c0 1.2-.538 2.336-1.467 3.096"/>
    <path fill="#AEB6BA" d="M26.0262 6.6822c-6.237-1.701-12.816-1.701-19.052 0-.871.237-1.474 1.028-1.474 1.93v3c0-.902.603-1.693 1.474-1.93 6.236-1.701 12.815-1.701 19.052 0 .87.237 1.474 1.028 1.474 1.93v-3c0-.902-.604-1.693-1.474-1.93"/>
    <path stroke="#5F4735" d="M26.033 21.2844l-8.266 6.763c-.737.603-1.797.603-2.533 0l-8.267-6.763c-.928-.76-1.467-1.896-1.467-3.096v-9.577c0-.902.604-1.692 1.474-1.929 6.237-1.701 12.815-1.701 19.052 0 .87.237 1.474 1.027 1.474 1.929v9.577c0 1.2-.538 2.336-1.467 3.096z" stroke-linecap="round" stroke-linejoin="round"/>
    <path fill="#FFF" d="M10.5 11.0214l6 9 6-9-6 4-6-4z"/>
    <path stroke="#5F4735" d="M10.5 11.0214l6 9 6-9-6 4-6-4z" stroke-linecap="round" stroke-linejoin="round"/>
  </g>
</svg>