<?xml version="1.0" encoding="UTF-8" standalone="no"?>
<svg width="681px" height="276px" viewBox="0 0 681 276" version="1.1" xmlns="http://www.w3.org/2000/svg" xmlns:xlink="http://www.w3.org/1999/xlink" xmlns:sketch="http://www.bohemiancoding.com/sketch/ns">
    <!-- Generator: Sketch 3.5.2 (25235) - http://www.bohemiancoding.com/sketch -->
    <title>Page 1</title>
    <desc>Created with Sketch.</desc>
    <defs>
        <path id="path-1" d="M2.136,54.183 C-1.269,84.819 15.519,110.484 39.639,111.513 L39.639,111.513 C63.756,112.536 86.067,88.533 89.472,57.894 L89.472,57.894 C92.877,27.258 76.089,1.593 51.969,0.567 L51.969,0.567 C51.471,0.546 50.976,0.534 50.478,0.534 L50.478,0.534 C26.94,0.537 5.469,24.18 2.136,54.183 L2.136,54.183 Z"></path>
        <path id="path-3" d="M0,1.977 L680.514,1.977 L680.514,282 L0,282 L0,1.977 Z"></path>
        <path id="path-5" d="M40.119,0.567 C15.999,1.593 -0.789,27.258 2.616,57.894 L2.616,57.894 C6.021,88.533 28.332,112.536 52.452,111.513 L52.452,111.513 C76.569,110.484 93.357,84.819 89.952,54.183 L89.952,54.183 C86.616,24.18 65.148,0.537 41.61,0.534 L41.61,0.534 C41.112,0.534 40.617,0.546 40.119,0.567 L40.119,0.567 Z"></path>
    </defs>
    <g id="Website-Stuff" stroke="none" stroke-width="1" fill="none" fill-rule="evenodd" sketch:type="MSPage">
        <g id="Airhorn---Desktop" sketch:type="MSArtboardGroup" transform="translate(-380.000000, -307.000000)">
            <g id="Page-1" sketch:type="MSLayerGroup" transform="translate(380.000000, 301.000000)">
                <path d="M382.512,99.564 L359.652,99.564 L359.652,36.483 L382.512,36.483 L382.512,99.564 Z" id="Fill-1" fill="#FF7555" sketch:type="MSShapeGroup"></path>
                <path d="M373.107,99.564 L382.512,99.564 L382.512,36.483 L373.107,36.483 L373.107,99.564 Z" id="Fill-2" fill="#F16338" sketch:type="MSShapeGroup"></path>
                <path d="M382.512,99.564 L359.652,99.564 L359.652,36.483 L382.512,36.483 L382.512,99.564 Z" id="Stroke-3" stroke="#5F4735" stroke-width="3" stroke-linecap="round" stroke-linejoin="round" sketch:type="MSShapeGroup"></path>
                <path d="M372.9453,83.3064 L372.9453,49.2684" id="Stroke-4" stroke="#5F4735" stroke-width="3" stroke-linecap="round" stroke-linejoin="round" sketch:type="MSShapeGroup"></path>
                <g id="Group-31" transform="translate(336.000000, 6.000000)" sketch:type="MSShapeGroup">
                    <path d="M64.9239,69.9537 L47.2569,55.1547 L47.0649,55.1547 C44.9769,56.8107 42.7119,58.2627 40.3209,59.6517 C38.5599,61.4967 35.5869,61.7787 33.3279,60.6147 C33.2139,60.5547 33.1089,60.4797 32.9949,60.4167 C32.4459,60.2157 31.9239,59.8977 31.4289,59.4927 C31.2879,59.4057 31.1379,59.3247 30.9969,59.2377 C30.9699,59.2197 30.9399,59.2047 30.9129,59.1867 C30.8949,59.1777 30.8739,59.1657 30.8529,59.1567 C30.5679,59.0637 29.9649,58.8207 29.9259,58.8057 C28.0419,58.1637 26.6829,56.8317 26.0919,55.1547 L23.4099,55.1547 L5.7429,69.9537 C3.7149,71.6517 2.5449,74.1627 2.5449,76.8087 L2.5449,168.6237 C2.5449,172.0767 4.5129,175.2117 7.6299,176.6997 C13.1259,179.3187 22.8039,182.8137 35.3349,182.8137 C47.8719,182.8137 57.5529,179.3157 63.0459,176.6937 C66.1599,175.2087 68.1249,172.0737 68.1249,168.6237 L68.1249,76.8087 C68.1249,74.1627 66.9519,71.6517 64.9239,69.9537" id="Fill-5" fill="#EBF2F7"></path>
                    <path d="M64.9242,69.9537 L47.2572,55.1547 L47.0652,55.1547 C44.9832,56.8077 42.7242,58.2567 40.3422,59.6427 C39.6192,60.4137 38.6952,60.9297 37.6812,61.1637 L47.2572,85.6947 L47.2572,168.6237 C47.2572,172.0737 45.2922,175.2087 42.1812,176.6937 C38.3352,178.5297 32.3982,180.7707 24.9012,181.9647 C26.3772,182.1987 27.9222,182.3847 29.5122,182.5317 C29.6982,182.5467 29.8752,182.5737 30.0642,182.5887 C31.7562,182.7297 33.5082,182.8137 35.3352,182.8137 C47.8722,182.8137 57.5532,179.3157 63.0462,176.6937 C66.1602,175.2087 68.1252,172.0737 68.1252,168.6237 L68.1252,76.8087 C68.1252,74.1627 66.9522,71.6517 64.9242,69.9537" id="Fill-7" fill="#DCE7EC"></path>
                    <path d="M47.2578,55.1544 L41.4408,59.1894 C38.6778,61.1034 35.0808,61.3194 32.1078,59.7504 L23.4108,55.1544 L5.7438,69.9534 C3.7158,71.6514 2.5428,74.1624 2.5428,76.8084 L2.5428,168.6264 C2.5428,172.0764 4.5138,175.2144 7.6308,176.6994 C13.1268,179.3184 22.8048,182.8134 35.3328,182.8134 C47.8698,182.8134 57.5538,179.3154 63.0468,176.6934 C66.1608,175.2084 68.1228,172.0734 68.1228,168.6264 L68.1228,76.8084 C68.1228,74.1624 66.9528,71.6514 64.9248,69.9534 L47.2578,55.1544 L47.2578,55.1544 Z" id="Stroke-9" stroke="#5F4735" stroke-width="3" stroke-linecap="round" stroke-linejoin="round"></path>
                    <path d="M3.0072,75.225 C8.8332,91.599 61.8342,91.578 67.6632,75.222" id="Stroke-11" stroke="#5F4735" stroke-width="3" stroke-linecap="round" stroke-linejoin="round"></path>
                    <path d="M12.6303,9.309 L27.1203,2.961 C29.1753,1.773 31.7103,1.773 33.7683,2.961 L61.2633,19.17 L50.2203,34.413 L29.3913,26.418" id="Fill-13" fill="#FF7555"></path>
                    <path d="M11.7249,10.431 L27.1179,2.961 C29.1759,1.773 31.7109,1.773 33.7689,2.961 L61.2609,19.17" id="Stroke-15" stroke="#5F4735" stroke-width="3" stroke-linecap="round" stroke-linejoin="round"></path>
                    <path d="M50.2218,50.0283 L14.6028,29.4633 C12.5448,28.2753 11.2788,26.0823 11.2788,23.7063 L11.2788,11.5533 C11.2788,10.2753 12.6648,9.4743 13.7718,10.1133 L50.2218,31.1583 L50.2218,50.0283 Z" id="Fill-17" fill="#FF7555"></path>
                    <path d="M50.2218,50.0283 L14.6028,29.4633 C12.5448,28.2753 11.2788,26.0823 11.2788,23.7063 L11.2788,11.5533 C11.2788,10.2753 12.6648,9.4743 13.7718,10.1133 L50.2218,31.1583 L50.2218,50.0283 L50.2218,50.0283 Z" id="Stroke-19" stroke="#5F4735" stroke-width="3" stroke-linecap="round" stroke-linejoin="round"></path>
                    <path d="M29.6535,149.7786 L29.6535,149.7786 C23.0535,149.7786 17.6535,144.3786 17.6535,137.7786 L17.6535,116.7786 C17.6535,110.1786 23.0535,104.7786 29.6535,104.7786 L29.6535,104.7786 C36.2535,104.7786 41.6535,110.1786 41.6535,116.7786 L41.6535,137.7786 C41.6535,144.3786 36.2535,149.7786 29.6535,149.7786" id="Fill-21" fill="#DFE8EE"></path>
                    <path d="M29.6535,149.7786 L29.6535,149.7786 C23.0535,149.7786 17.6535,144.3786 17.6535,137.7786 L17.6535,116.7786 C17.6535,110.1786 23.0535,104.7786 29.6535,104.7786 L29.6535,104.7786 C36.2535,104.7786 41.6535,110.1786 41.6535,116.7786 L41.6535,137.7786 C41.6535,144.3786 36.2535,149.7786 29.6535,149.7786 L29.6535,149.7786 Z" id="Stroke-23" stroke="#5F4735" stroke-width="3" stroke-linecap="round" stroke-linejoin="round"></path>
                    <path d="M87.0849,22.5153 C82.6149,21.0423 78.1449,19.5693 73.6719,18.0963 L71.8629,17.6073 C70.2789,17.2953 68.6379,17.1303 66.9579,17.1303 C53.5149,17.1303 42.6159,27.6303 42.6159,40.5783 C42.6159,51.3093 50.0979,60.3573 60.3129,63.1443 L72.2799,67.2993" id="Fill-25" fill="#FF7555"></path>
                    <path d="M66.9579,64.0281 L111.3039,114.9501 L141.8049,19.1271 L79.6539,22.1661 L66.9579,64.0281 Z" id="Fill-27" fill="#FF7555"></path>
                    <path d="M188.472,75.8949 C185.067,106.5309 162.756,130.5369 138.636,129.5109 C114.519,128.4849 97.731,102.8199 101.136,72.1809 C104.541,41.5449 126.852,17.5419 150.969,18.5649 C175.089,19.5909 191.877,45.2589 188.472,75.8949" id="Fill-29" fill="#F96335"></path>
                </g>
                <g id="Group-34" transform="translate(435.000000, 24.000000)">
                    <mask id="mask-2" sketch:name="Clip 33" fill="white">
                        <use xlink:href="#path-1"></use>
                    </mask>
                    <g id="Clip-33"></g>
                    <path d="M36.0048,42.1524 C33.9618,60.5334 20.5758,74.9364 6.1038,74.3214 C-8.3652,73.7064 -18.4392,55.3074 -16.3962,36.9234 C-14.3532,18.5424 -0.9672,7.1394 13.5048,7.7544 C27.9738,8.3694 38.0478,23.7714 36.0048,42.1524 L36.0048,42.1524 Z" id="Stroke-32" stroke="#5F4735" stroke-width="3" stroke-linecap="round" stroke-linejoin="round" sketch:type="MSShapeGroup" mask="url(#mask-2)"></path>
                </g>
                <g id="Group-165">
                    <path d="M524.472,81.8949 C521.067,112.5309 498.756,136.5369 474.636,135.5109 C450.519,134.4849 433.731,108.8199 437.136,78.1809 C440.541,47.5449 462.852,23.5419 486.969,24.5649 C511.089,25.5909 527.877,51.2589 524.472,81.8949 L524.472,81.8949 Z" id="Stroke-35" stroke="#5F4735" stroke-width="3" stroke-linecap="round" stroke-linejoin="round" sketch:type="MSShapeGroup"></path>
                    <path d="M419.0298,28.1676 C416.0538,26.5746 414.5148,25.6926 409.6728,24.0966 L407.8638,23.6076 C406.2798,23.2956 404.6388,23.1306 402.9588,23.1306 C389.5158,23.1306 378.6168,33.6306 378.6168,46.5786 C378.6168,57.3096 386.0988,66.3576 396.3108,69.1446 L401.1168,70.2306" id="Stroke-37" stroke="#5F4735" stroke-width="3" stroke-linecap="round" stroke-linejoin="round" sketch:type="MSShapeGroup"></path>
                    <path d="M398.6238,66.36 C395.2398,62.331 393.2118,57.201 393.2118,51.615 C393.2118,38.667 404.1078,28.167 417.5538,28.167" id="Stroke-39" stroke="#5F4735" stroke-width="3" stroke-linecap="round" stroke-linejoin="round" sketch:type="MSShapeGroup"></path>
                    <path d="M414.5538,28.5756 L477.8028,25.1256" id="Stroke-41" stroke="#5F4735" stroke-width="3" stroke-linecap="round" stroke-linejoin="round" sketch:type="MSShapeGroup"></path>
                    <path d="M447.3039,120.9507 L399.0549,66.9507" id="Stroke-43" stroke="#5F4735" stroke-width="3" stroke-linecap="round" stroke-linejoin="round" sketch:type="MSShapeGroup"></path>
                    <path d="M528.8097,280.5 L410.3937,212.133 L410.3937,154.227 L665.5437,143.652 L665.5437,201.558 L528.8097,280.5 Z" id="Fill-45" fill="#FFE6A7" sketch:type="MSShapeGroup"></path>
                    <path d="M527.7078,149.3649 L527.7078,279.8649 L528.8088,280.5009 L665.5428,201.5559 L665.5428,143.6499 L527.7078,149.3649 Z" id="Fill-47" fill="#EDD194" sketch:type="MSShapeGroup"></path>
                    <path d="M665.5437,143.6514 L665.5437,201.5574 L528.8097,280.4994 L410.3937,212.1324 L410.3937,154.2264" id="Stroke-49" stroke="#5E4634" stroke-width="3" stroke-linecap="round" stroke-linejoin="round" sketch:type="MSShapeGroup"></path>
                    <path d="M528.8097,243 L410.3937,174.633 L410.3937,154.227 L665.5437,143.652 L665.5437,164.058 L528.8097,243 Z" id="Fill-51" fill="#C7E082" sketch:type="MSShapeGroup"></path>
                    <path d="M528.7077,149.3235 L528.7077,242.9415 L528.8097,243.0015 L665.5437,164.0565 L665.5437,143.6505 L528.7077,149.3235 Z" id="Fill-53" fill="#B0CC64" sketch:type="MSShapeGroup"></path>
                    <path d="M665.5437,146.6514 L665.5437,164.0574 L528.8097,242.9994 L410.3937,174.6324 L410.3937,154.2264" id="Stroke-55" stroke="#5E4634" stroke-width="3" stroke-linecap="round" stroke-linejoin="round" sketch:type="MSShapeGroup"></path>
                    <path d="M528.8097,222.5949 L410.3937,154.2279 L547.1277,75.2829 L665.5437,143.6529 L528.8097,222.5949 Z" id="Fill-57" fill="#B7D86F" sketch:type="MSShapeGroup"></path>
                    <path d="M528.8097,222.5949 L410.3937,154.2279 L547.1277,75.2829 L665.5437,143.6529 L528.8097,222.5949 L528.8097,222.5949 Z" id="Stroke-59" stroke="#5E4634" stroke-width="3" stroke-linecap="round" stroke-linejoin="round" sketch:type="MSShapeGroup"></path>
                    <path d="M528.8097,222.5949 L528.8097,280.5009" id="Stroke-61" stroke="#5E4634" stroke-width="3" stroke-linecap="round" stroke-linejoin="round" sketch:type="MSShapeGroup"></path>
                    <path d="M552.828,35.8173 L552.825,35.8143 L552.825,35.8083 C553.515,29.6553 560.496,26.4333 565.626,29.9013 L565.629,29.9043 L565.629,29.9103 C564.939,36.0663 557.958,39.2853 552.828,35.8173" id="Fill-63" fill="#C3F270" sketch:type="MSShapeGroup"></path>
                    <path d="M552.828,35.8173 L552.825,35.8143 L552.825,35.8083 C553.515,29.6553 560.496,26.4333 565.626,29.9013 L565.629,29.9043 L565.629,29.9103 C564.939,36.0663 557.958,39.2853 552.828,35.8173 L552.828,35.8173 Z" id="Stroke-65" stroke="#5E4634" stroke-width="3" stroke-linecap="round" stroke-linejoin="round" sketch:type="MSShapeGroup"></path>
                    <path d="M573.7017,9.9903 L573.7017,9.9843 L573.7047,9.9813 C578.2197,5.7453 585.6207,7.8183 587.2797,13.7853 L587.2797,13.7883 L587.2767,13.7943 C582.7617,18.0303 575.3607,15.9573 573.7017,9.9903" id="Fill-67" fill="#C3F270" sketch:type="MSShapeGroup"></path>
                    <path d="M573.7017,9.9903 L573.7017,9.9843 L573.7047,9.9813 C578.2197,5.7453 585.6207,7.8183 587.2797,13.7853 L587.2797,13.7883 L587.2767,13.7943 C582.7617,18.0303 575.3607,15.9573 573.7017,9.9903 L573.7017,9.9903 Z" id="Stroke-69" stroke="#5E4634" stroke-width="3" stroke-linecap="round" stroke-linejoin="round" sketch:type="MSShapeGroup"></path>
                    <path d="M500.8203,136.8846 L500.8203,163.5096 C500.8203,166.2006 506.1093,168.3846 512.6343,168.3846 C519.1563,168.3846 524.4453,166.2006 524.4453,163.5096 L524.4453,136.8846 L500.8203,136.8846 Z" id="Fill-71" fill="#FFE6A7" sketch:type="MSShapeGroup"></path>
                    <path d="M512.6958,136.8846 L512.6958,168.3816 C519.1908,168.3666 524.4468,166.1916 524.4468,163.5096 L524.4468,136.8846 L512.6958,136.8846 Z" id="Fill-73" fill="#EDD194" sketch:type="MSShapeGroup"></path>
                    <path d="M500.8203,136.8846 L500.8203,163.5096 C500.8203,166.2006 506.1093,168.3846 512.6343,168.3846 C519.1563,168.3846 524.4453,166.2006 524.4453,163.5096 L524.4453,136.8846 L500.8203,136.8846 L500.8203,136.8846 Z" id="Stroke-75" stroke="#5E4634" stroke-width="3" stroke-linecap="round" stroke-linejoin="round" sketch:type="MSShapeGroup"></path>
                    <path d="M518.2671,31.3635 L554.3961,130.0935 C556.1151,134.7885 554.4951,140.1435 550.3041,142.8705 C544.2531,146.8095 532.9761,151.1355 512.6331,151.1355 C492.2901,151.1355 481.0131,146.8095 474.9621,142.8705 C470.7711,140.1435 469.1481,134.7885 470.8671,130.0935 L506.9991,31.3635 C508.9191,26.1135 516.3471,26.1135 518.2671,31.3635" id="Fill-77" fill="#C3F270" sketch:type="MSShapeGroup"></path>
                    <path d="M554.3973,130.0935 L518.2683,31.3635 C516.3453,26.1135 508.9203,26.1135 506.9973,31.3635 L504.1173,39.2385 L535.3563,124.6035 C537.0753,129.2985 535.4553,134.6535 531.2613,137.3805 C525.2103,141.3195 513.9333,145.6455 493.5903,145.6455 C487.6773,145.6455 482.5473,145.2705 478.0713,144.6555 C484.6233,148.0095 495.3453,151.1355 512.6313,151.1355 C532.9743,151.1355 544.2513,146.8095 550.3023,142.8705 C554.4963,140.1435 556.1163,134.7885 554.3973,130.0935" id="Fill-79" fill="#B7D86F" sketch:type="MSShapeGroup"></path>
                    <path d="M518.2671,31.3635 L554.3961,130.0935 C556.1151,134.7885 554.4951,140.1435 550.3041,142.8705 C544.2531,146.8095 532.9761,151.1355 512.6331,151.1355 C492.2901,151.1355 481.0131,146.8095 474.9621,142.8705 C470.7711,140.1435 469.1481,134.7885 470.8671,130.0935 L506.9991,31.3635 C508.9191,26.1135 516.3471,26.1135 518.2671,31.3635 L518.2671,31.3635 Z" id="Stroke-81" stroke="#5E4634" stroke-width="3" stroke-linecap="round" stroke-linejoin="round" sketch:type="MSShapeGroup"></path>
                    <path d="M581.6241,102.9837 L581.6241,132.7677 C581.6241,134.0577 584.1561,135.1017 587.2821,135.1017 C590.4051,135.1017 592.9371,134.0577 592.9371,132.7677 L592.9371,102.9837 L581.6241,102.9837 Z" id="Fill-83" fill="#FFE6A7" sketch:type="MSShapeGroup"></path>
                    <path d="M587.6958,102.9837 L587.6958,135.0867 C590.6238,134.9967 592.9368,133.9977 592.9368,132.7677 L592.9368,102.9837 L587.6958,102.9837 Z" id="Fill-85" fill="#EDD194" sketch:type="MSShapeGroup"></path>
                    <path d="M581.6241,102.9837 L581.6241,132.7677 C581.6241,134.0577 584.1561,135.1017 587.2821,135.1017 C590.4051,135.1017 592.9371,134.0577 592.9371,132.7677 L592.9371,102.9837 L581.6241,102.9837 L581.6241,102.9837 Z" id="Stroke-87" stroke="#5E4634" stroke-width="3" stroke-linecap="round" stroke-linejoin="round" sketch:type="MSShapeGroup"></path>
                    <path d="M587.2809,123.543 L587.2809,123.543 C573.0489,123.543 561.4059,111.9 561.4059,97.668 L561.4059,88.341 C561.4059,74.109 573.0489,62.466 587.2809,62.466 L587.2809,62.466 C601.5129,62.466 613.1559,74.109 613.1559,88.341 L613.1559,97.668 C613.1559,111.9 601.5129,123.543 587.2809,123.543" id="Fill-89" fill="#C3F270" sketch:type="MSShapeGroup"></path>
                    <path d="M588.8847,62.5479 C594.5397,67.3029 598.1547,74.4189 598.1547,82.3419 L598.1547,91.6689 C598.1547,105.9009 586.5117,117.5439 572.2797,117.5439 C571.7397,117.5439 571.2117,117.4959 570.6777,117.4629 C575.1807,121.2489 580.9737,123.5439 587.2797,123.5439 C601.5117,123.5439 613.1547,111.9009 613.1547,97.6689 L613.1547,88.3419 C613.1547,74.6499 602.3727,63.3879 588.8847,62.5479" id="Fill-91" fill="#B7D86F" sketch:type="MSShapeGroup"></path>
                    <path d="M587.2809,123.543 L587.2809,123.543 C573.0489,123.543 561.4059,111.9 561.4059,97.668 L561.4059,88.341 C561.4059,74.109 573.0489,62.466 587.2809,62.466 L587.2809,62.466 C601.5129,62.466 613.1559,74.109 613.1559,88.341 L613.1559,97.668 C613.1559,111.9 601.5129,123.543 587.2809,123.543 L587.2809,123.543 Z" id="Stroke-93" stroke="#5E4634" stroke-width="3" stroke-linecap="round" stroke-linejoin="round" sketch:type="MSShapeGroup"></path>
                    <path d="M600.3414,129.0783 L600.3414,132.3273" id="Stroke-95" stroke="#5E4634" stroke-width="3" stroke-linecap="round" stroke-linejoin="round" sketch:type="MSShapeGroup"></path>
                    <path d="M449.0913,143.6514 L449.0913,146.9004" id="Stroke-97" stroke="#5E4634" stroke-width="3" stroke-linecap="round" stroke-linejoin="round" sketch:type="MSShapeGroup"></path>
                    <path d="M524.4453,204.831 L524.4453,208.08" id="Stroke-99" stroke="#5E4634" stroke-width="3" stroke-linecap="round" stroke-linejoin="round" sketch:type="MSShapeGroup"></path>
                    <path d="M532.0035,199.0785 L532.0035,202.3275" id="Stroke-101" stroke="#5E4634" stroke-width="3" stroke-linecap="round" stroke-linejoin="round" sketch:type="MSShapeGroup"></path>
                    <path d="M532.0035,158.3283 L532.0035,161.5773" id="Stroke-103" stroke="#5E4634" stroke-width="3" stroke-linecap="round" stroke-linejoin="round" sketch:type="MSShapeGroup"></path>
                    <path d="M493.5912,155.0784 L493.5912,158.3274" id="Stroke-105" stroke="#5E4634" stroke-width="3" stroke-linecap="round" stroke-linejoin="round" sketch:type="MSShapeGroup"></path>
                    <path d="M488.0913,158.3283 L488.0913,161.5773" id="Stroke-107" stroke="#5E4634" stroke-width="3" stroke-linecap="round" stroke-linejoin="round" sketch:type="MSShapeGroup"></path>
                    <path d="M437.0913,132.7035 L437.0913,138.2265" id="Stroke-109" stroke="#5E4634" stroke-width="3" stroke-linecap="round" stroke-linejoin="round" sketch:type="MSShapeGroup"></path>
                    <path d="M432.2163,135.8283 L432.2163,141.3513" id="Stroke-111" stroke="#5E4634" stroke-width="3" stroke-linecap="round" stroke-linejoin="round" sketch:type="MSShapeGroup"></path>
                    <path d="M605.5914,125.3283 L605.5914,129.0783" id="Stroke-113" stroke="#5E4634" stroke-width="3" stroke-linecap="round" stroke-linejoin="round" sketch:type="MSShapeGroup"></path>
                    <path d="M566.8821,170.9463 L560.1981,170.9463 C559.4631,170.9463 558.8631,170.3463 558.8631,169.6083 L558.8631,169.0533 C558.8631,167.2773 560.3151,165.8223 562.0941,165.8223 L564.9891,165.8223 C566.7651,165.8223 568.2201,167.2773 568.2201,169.0533 L568.2201,169.6083 C568.2201,170.3463 567.6171,170.9463 566.8821,170.9463" id="Fill-115" fill="#EBEBEB" sketch:type="MSShapeGroup"></path>
                    <path d="M566.8821,170.9463 L560.1981,170.9463 C559.4631,170.9463 558.8631,170.3463 558.8631,169.6083 L558.8631,169.0533 C558.8631,167.2773 560.3151,165.8223 562.0941,165.8223 L564.9891,165.8223 C566.7651,165.8223 568.2201,167.2773 568.2201,169.0533 L568.2201,169.6083 C568.2201,170.3463 567.6171,170.9463 566.8821,170.9463 L566.8821,170.9463 Z" id="Stroke-117" stroke="#5E4634" stroke-width="3" stroke-linecap="round" stroke-linejoin="round" sketch:type="MSShapeGroup"></path>
                    <path d="M598.0356,18.6285 C603.9096,18.6885 608.7546,23.1765 612.3456,27.8265 C614.6016,30.7485 616.6506,33.9045 617.7336,37.4325 C620.8956,47.7165 615.1896,58.8345 607.4346,66.2895 C600.0756,73.3665 590.1816,78.4845 580.0026,77.7495" id="Stroke-119" stroke="#5E4634" stroke-width="3" stroke-linecap="round" stroke-linejoin="round" stroke-dasharray="6,12" sketch:type="MSShapeGroup"></path>
                    <path d="M622.0617,91.1706 C632.5587,95.0316 644.2497,95.5686 655.0527,92.6826" id="Stroke-121" stroke="#5E4634" stroke-width="3" stroke-linecap="round" stroke-linejoin="round" stroke-dasharray="6,12" sketch:type="MSShapeGroup"></path>
                    <path d="M657.2475,91.9143 L657.2415,91.9113 L657.2415,91.9053 C657.1425,85.7133 663.6555,81.6303 669.1845,84.4143 L669.1905,84.4173 L669.1905,84.4233 C669.2895,90.6153 662.7795,94.6983 657.2475,91.9143" id="Fill-123" fill="#C3F270" sketch:type="MSShapeGroup"></path>
                    <path d="M657.2475,91.9143 L657.2415,91.9113 L657.2415,91.9053 C657.1425,85.7133 663.6555,81.6303 669.1845,84.4143 L669.1905,84.4173 L669.1905,84.4233 C669.2895,90.6153 662.7795,94.6983 657.2475,91.9143 L657.2475,91.9143 Z" id="Stroke-125" stroke="#5E4634" stroke-width="3" stroke-linecap="round" stroke-linejoin="round" sketch:type="MSShapeGroup"></path>
                    <path d="M678.351,56.2053 C678.351,56.2053 682.602,60.9543 669.6,61.9563 C656.601,62.9553 667.851,45.9543 678.351,56.2053" id="Fill-127" fill="#885C53" sketch:type="MSShapeGroup"></path>
                    <path d="M678.351,56.2053 C678.351,56.2053 682.602,60.9543 669.6,61.9563 C656.601,62.9553 667.851,45.9543 678.351,56.2053 L678.351,56.2053 Z" id="Stroke-129" stroke="#5F4735" stroke-width="3" sketch:type="MSShapeGroup"></path>
                    <path d="M648.351,49.9551 C648.351,49.9551 653.601,37.4541 665.352,40.7061 C677.1,43.9551 677.775,62.1651 661.851,65.7051 C648.351,68.7051 643.35,67.7061 641.352,61.9551 C638.88,54.8511 648.351,49.9551 648.351,49.9551" id="Fill-131" fill="#F27557" sketch:type="MSShapeGroup"></path>
                    <path d="M648.351,49.9551 C648.351,49.9551 653.601,37.4541 665.352,40.7061 C677.1,43.9551 677.775,62.1651 661.851,65.7051 C648.351,68.7051 643.35,67.7061 641.352,61.9551 C638.88,54.8511 648.351,49.9551 648.351,49.9551 L648.351,49.9551 Z" id="Stroke-133" stroke="#5F4735" stroke-width="3" stroke-linecap="round" stroke-linejoin="round" sketch:type="MSShapeGroup"></path>
                    <path d="M670.6011,50.9553 C670.6011,50.9553 672.6021,44.4543 665.3511,44.7063 C658.1001,44.9553 662.3511,51.7053 662.3511,51.7053 C662.3511,51.7053 666.1011,49.9563 670.6011,50.9553" id="Fill-135" fill="#FFFFFF" sketch:type="MSShapeGroup"></path>
                    <path d="M670.6011,50.9553 C670.6011,50.9553 672.6021,44.4543 665.3511,44.7063 C658.1001,44.9553 662.3511,51.7053 662.3511,51.7053 C662.3511,51.7053 666.1011,49.9563 670.6011,50.9553 L670.6011,50.9553 Z" id="Stroke-137" stroke="#5F4735" stroke-width="3" stroke-linecap="round" sketch:type="MSShapeGroup"></path>
                    <path d="M667.3512,54.2052 C660.6192,52.8582 650.1012,57.2052 649.1022,63.4542 C648.1812,69.1962 660.2802,66.5562 664.3512,64.7052 C669.8502,62.2062 678.6012,56.4552 667.3512,54.2052" id="Fill-139" fill="#885C53" sketch:type="MSShapeGroup"></path>
                    <path d="M667.3512,54.2052 C660.6192,52.8582 650.1012,57.2052 649.1022,63.4542 C648.1812,69.1962 660.2802,66.5562 664.3512,64.7052 C669.8502,62.2062 678.6012,56.4552 667.3512,54.2052 L667.3512,54.2052 Z" id="Stroke-141" stroke="#5F4735" stroke-width="3" sketch:type="MSShapeGroup"></path>
                    <path d="M652.3512,58.2051 C652.3512,58.2051 658.6002,53.9541 662.3502,51.7041 C666.1002,49.4541 672.3522,49.9551 678.3522,56.2041 C678.3522,56.2041 673.6002,53.2041 666.1002,58.4541 C661.9782,61.3401 652.3512,58.2051 652.3512,58.2051" id="Fill-143" fill="#F27557" sketch:type="MSShapeGroup"></path>
                    <path d="M652.3512,58.2051 C652.3512,58.2051 658.6002,53.9541 662.3502,51.7041 C666.1002,49.4541 672.3522,49.9551 678.3522,56.2041 C678.3522,56.2041 673.6002,53.2041 666.1002,58.4541 C661.9782,61.3401 652.3512,58.2051 652.3512,58.2051 L652.3512,58.2051 Z" id="Stroke-145" stroke="#5F4735" stroke-width="3" stroke-linecap="round" stroke-linejoin="round" sketch:type="MSShapeGroup"></path>
                    <mask id="mask-4" sketch:name="Clip 148" fill="white">
                        <use xlink:href="#path-3"></use>
                    </mask>
                    <g id="Clip-148"></g>
                    <path d="M294.576,99.564 L317.436,99.564 L317.436,36.483 L294.576,36.483 L294.576,99.564 Z" id="Fill-147" fill="#FF7555" sketch:type="MSShapeGroup" mask="url(#mask-4)"></path>
                    <path d="M303.981,99.564 L294.576,99.564 L294.576,36.483 L303.981,36.483 L303.981,99.564 Z" id="Fill-149" fill="#F16338" sketch:type="MSShapeGroup" mask="url(#mask-4)"></path>
                    <path d="M294.576,99.564 L317.436,99.564 L317.436,36.483 L294.576,36.483 L294.576,99.564 Z" id="Stroke-150" stroke="#5F4735" stroke-width="3" stroke-linecap="round" stroke-linejoin="round" sketch:type="MSShapeGroup" mask="url(#mask-4)"></path>
                    <path d="M304.1424,83.3064 L304.1424,49.2684" id="Stroke-151" stroke="#5F4735" stroke-width="3" stroke-linecap="round" stroke-linejoin="round" sketch:type="MSShapeGroup" mask="url(#mask-4)"></path>
                    <path d="M335.3436,75.9537 L317.6766,61.1547 L317.4846,61.1547 C315.3966,62.8107 313.1316,64.2627 310.7406,65.6517 C308.9796,67.4967 306.0066,67.7787 303.7476,66.6147 C303.6336,66.5547 303.5286,66.4797 303.4146,66.4167 C302.8656,66.2157 302.3436,65.8977 301.8486,65.4927 C301.7076,65.4057 301.5576,65.3247 301.4166,65.2377 C301.3896,65.2197 301.3596,65.2047 301.3326,65.1867 C301.3146,65.1777 301.2936,65.1657 301.2726,65.1567 C300.9876,65.0637 300.3846,64.8207 300.3456,64.8057 C298.4616,64.1637 297.1026,62.8317 296.5116,61.1547 L293.8296,61.1547 L276.1626,75.9537 C274.1346,77.6517 272.9646,80.1627 272.9646,82.8087 L272.9646,174.6237 C272.9646,178.0767 274.9326,181.2117 278.0496,182.6997 C283.5456,185.3187 293.2236,188.8137 305.7546,188.8137 C318.2916,188.8137 327.9726,185.3157 333.4656,182.6937 C336.5796,181.2087 338.5446,178.0737 338.5446,174.6237 L338.5446,82.8087 C338.5446,80.1627 337.3716,77.6517 335.3436,75.9537" id="Fill-152" fill="#EBF2F7" sketch:type="MSShapeGroup" mask="url(#mask-4)"></path>
                    <path d="M335.3439,75.9537 L317.6769,61.1547 L317.4849,61.1547 C315.4029,62.8077 313.1439,64.2567 310.7619,65.6427 C310.0389,66.4137 309.1149,66.9297 308.1009,67.1637 L317.6769,91.6947 L317.6769,174.6237 C317.6769,178.0737 315.7119,181.2087 312.6009,182.6937 C308.7549,184.5297 302.8179,186.7707 295.3209,187.9647 C296.7969,188.1987 298.3419,188.3847 299.9319,188.5317 C300.1179,188.5467 300.2949,188.5737 300.4839,188.5887 C302.1759,188.7297 303.9279,188.8137 305.7549,188.8137 C318.2919,188.8137 327.9729,185.3157 333.4659,182.6937 C336.5799,181.2087 338.5449,178.0737 338.5449,174.6237 L338.5449,82.8087 C338.5449,80.1627 337.3719,77.6517 335.3439,75.9537" id="Fill-153" fill="#DCE7EC" sketch:type="MSShapeGroup" mask="url(#mask-4)"></path>
                    <path d="M293.8299,61.1544 L299.6469,65.1894 C302.4099,67.1034 306.0069,67.3194 308.9799,65.7504 L317.6769,61.1544 L335.3439,75.9534 C337.3719,77.6514 338.5449,80.1624 338.5449,82.8084 L338.5449,174.6264 C338.5449,178.0764 336.5739,181.2144 333.4569,182.6994 C327.9609,185.3184 318.2829,188.8134 305.7549,188.8134 C293.2179,188.8134 283.5339,185.3154 278.0409,182.6934 C274.9269,181.2084 272.9649,178.0734 272.9649,174.6264 L272.9649,82.8084 C272.9649,80.1624 274.1349,77.6514 276.1629,75.9534 L293.8299,61.1544 L293.8299,61.1544 Z" id="Stroke-154" stroke="#5F4735" stroke-width="3" stroke-linecap="round" stroke-linejoin="round" sketch:type="MSShapeGroup" mask="url(#mask-4)"></path>
                    <path d="M338.0805,81.225 C332.2545,97.599 279.2535,97.578 273.4245,81.222" id="Stroke-155" stroke="#5F4735" stroke-width="3" stroke-linecap="round" stroke-linejoin="round" sketch:type="MSShapeGroup" mask="url(#mask-4)"></path>
                    <path d="M328.4571,15.309 L313.9671,8.961 C311.9121,7.773 309.3771,7.773 307.3191,8.961 L279.8241,25.17 L290.8671,40.413 L311.6961,32.418" id="Fill-156" fill="#FF7555" sketch:type="MSShapeGroup" mask="url(#mask-4)"></path>
                    <path d="M329.3628,16.431 L313.9698,8.961 C311.9118,7.773 309.3768,7.773 307.3188,8.961 L279.8268,25.17" id="Stroke-157" stroke="#5F4735" stroke-width="3" stroke-linecap="round" stroke-linejoin="round" sketch:type="MSShapeGroup" mask="url(#mask-4)"></path>
                    <path d="M290.8659,56.0283 L326.4849,35.4633 C328.5429,34.2753 329.8089,32.0823 329.8089,29.7063 L329.8089,17.5533 C329.8089,16.2753 328.4229,15.4743 327.3159,16.1133 L290.8659,37.1583 L290.8659,56.0283 Z" id="Fill-158" fill="#FF7555" sketch:type="MSShapeGroup" mask="url(#mask-4)"></path>
                    <path d="M290.8659,56.0283 L326.4849,35.4633 C328.5429,34.2753 329.8089,32.0823 329.8089,29.7063 L329.8089,17.5533 C329.8089,16.2753 328.4229,15.4743 327.3159,16.1133 L290.8659,37.1583 L290.8659,56.0283 L290.8659,56.0283 Z" id="Stroke-159" stroke="#5F4735" stroke-width="3" stroke-linecap="round" stroke-linejoin="round" sketch:type="MSShapeGroup" mask="url(#mask-4)"></path>
                    <path d="M311.4339,155.7786 L311.4339,155.7786 C318.0339,155.7786 323.4339,150.3786 323.4339,143.7786 L323.4339,122.7786 C323.4339,116.1786 318.0339,110.7786 311.4339,110.7786 L311.4339,110.7786 C304.8339,110.7786 299.4339,116.1786 299.4339,122.7786 L299.4339,143.7786 C299.4339,150.3786 304.8339,155.7786 311.4339,155.7786" id="Fill-160" fill="#DFE8EE" sketch:type="MSShapeGroup" mask="url(#mask-4)"></path>
                    <path d="M311.4339,155.7786 L311.4339,155.7786 C318.0339,155.7786 323.4339,150.3786 323.4339,143.7786 L323.4339,122.7786 C323.4339,116.1786 318.0339,110.7786 311.4339,110.7786 L311.4339,110.7786 C304.8339,110.7786 299.4339,116.1786 299.4339,122.7786 L299.4339,143.7786 C299.4339,150.3786 304.8339,155.7786 311.4339,155.7786 L311.4339,155.7786 Z" id="Stroke-161" stroke="#5F4735" stroke-width="3" stroke-linecap="round" stroke-linejoin="round" sketch:type="MSShapeGroup" mask="url(#mask-4)"></path>
                    <path d="M254.0028,28.5153 C258.4728,27.0423 262.9428,25.5693 267.4158,24.0963 L269.2248,23.6073 C270.8088,23.2953 272.4498,23.1303 274.1298,23.1303 C287.5728,23.1303 298.4718,33.6303 298.4718,46.5783 C298.4718,57.3093 290.9898,66.3573 280.7748,69.1443 L268.8078,73.2993" id="Fill-162" fill="#FF7555" sketch:type="MSShapeGroup" mask="url(#mask-4)"></path>
                    <path d="M274.1298,70.0281 L229.7838,120.9501 L199.2828,25.1271 L261.4308,28.1661 L274.1298,70.0281 Z" id="Fill-163" fill="#FF7555" sketch:type="MSShapeGroup" mask="url(#mask-4)"></path>
                    <path d="M152.6157,81.8949 C156.0207,112.5309 178.3317,136.5369 202.4517,135.5109 C226.5687,134.4849 243.3567,108.8199 239.9517,78.1809 C236.5467,47.5449 214.2357,23.5419 190.1187,24.5649 C165.9987,25.5909 149.2107,51.2589 152.6157,81.8949" id="Fill-164" fill="#F96335" sketch:type="MSShapeGroup" mask="url(#mask-4)"></path>
                </g>
                <g id="Group-168" transform="translate(150.000000, 24.000000)">
                    <mask id="mask-6" sketch:name="Clip 167" fill="white">
                        <use xlink:href="#path-5"></use>
                    </mask>
                    <g id="Clip-167"></g>
                    <path d="M56.0829,42.1524 C58.1259,60.5334 71.5119,74.9364 85.9839,74.3214 C100.4529,73.7064 110.5269,55.3074 108.4839,36.9234 C106.4409,18.5424 93.0549,7.1394 78.5829,7.7544 C64.1139,8.3694 54.0399,23.7714 56.0829,42.1524 L56.0829,42.1524 Z" id="Stroke-166" stroke="#5F4735" stroke-width="3" stroke-linecap="round" stroke-linejoin="round" sketch:type="MSShapeGroup" mask="url(#mask-6)"></path>
                </g>
                <g id="Group-275" sketch:type="MSShapeGroup">
                    <path d="M152.6157,81.8949 C156.0207,112.5309 178.3317,136.5369 202.4517,135.5109 C226.5687,134.4849 243.3567,108.8199 239.9517,78.1809 C236.5467,47.5449 214.2357,23.5419 190.1187,24.5649 C165.9987,25.5909 149.2107,51.2589 152.6157,81.8949 L152.6157,81.8949 Z" id="Stroke-169" stroke="#5F4735" stroke-width="3" stroke-linecap="round" stroke-linejoin="round"></path>
                    <path d="M258.0579,28.1676 C261.0339,26.5746 262.5729,25.6926 267.4149,24.0966 L269.2239,23.6076 C270.8079,23.2956 272.4489,23.1306 274.1289,23.1306 C287.5719,23.1306 298.4709,33.6306 298.4709,46.5786 C298.4709,57.3096 290.9889,66.3576 280.7769,69.1446 L275.9709,70.2306" id="Stroke-171" stroke="#5F4735" stroke-width="3" stroke-linecap="round" stroke-linejoin="round"></path>
                    <path d="M278.4639,66.36 C281.8479,62.331 283.8759,57.201 283.8759,51.615 C283.8759,38.667 272.9799,28.167 259.5339,28.167" id="Stroke-173" stroke="#5F4735" stroke-width="3" stroke-linecap="round" stroke-linejoin="round"></path>
                    <path d="M262.5339,28.5756 L199.2849,25.1256" id="Stroke-175" stroke="#5F4735" stroke-width="3" stroke-linecap="round" stroke-linejoin="round"></path>
                    <path d="M229.7838,120.9507 L278.0328,66.9507" id="Stroke-177" stroke="#5F4735" stroke-width="3" stroke-linecap="round" stroke-linejoin="round"></path>
                    <path d="M148.278,280.5 L266.694,212.133 L266.694,154.227 L11.544,143.652 L11.544,201.558 L148.278,280.5 Z" id="Fill-179" fill="#EDD194"></path>
                    <path d="M149.3799,149.3649 L149.3799,279.8649 L148.2789,280.5009 L11.5449,201.5559 L11.5449,143.6499 L149.3799,149.3649 Z" id="Fill-181" fill="#FFE6A7"></path>
                    <path d="M11.5437,143.6514 L11.5437,201.5574 L148.2777,280.4994 L266.6937,212.1324 L266.6937,154.2264" id="Stroke-183" stroke="#5E4634" stroke-width="3" stroke-linecap="round" stroke-linejoin="round"></path>
                    <path d="M148.278,243 L266.694,174.633 L266.694,154.227 L11.544,143.652 L11.544,164.058 L148.278,243 Z" id="Fill-185" fill="#B0CC64"></path>
                    <path d="M148.3797,149.3235 L148.3797,242.9415 L148.2777,243.0015 L11.5437,164.0565 L11.5437,143.6505 L148.3797,149.3235 Z" id="Fill-187" fill="#C7E082"></path>
                    <path d="M11.5437,146.6514 L11.5437,164.0574 L148.2777,242.9994 L266.6937,174.6324 L266.6937,154.2264" id="Stroke-189" stroke="#5E4634" stroke-width="3" stroke-linecap="round" stroke-linejoin="round"></path>
                    <path d="M148.278,222.5949 L266.694,154.2279 L129.96,75.2829 L11.544,143.6529 L148.278,222.5949 Z" id="Fill-191" fill="#B7D86F"></path>
                    <path d="M148.278,222.5949 L266.694,154.2279 L129.96,75.2829 L11.544,143.6529 L148.278,222.5949 L148.278,222.5949 Z" id="Stroke-193" stroke="#5E4634" stroke-width="3" stroke-linecap="round" stroke-linejoin="round"></path>
                    <path d="M148.278,222.5949 L148.278,280.5009" id="Stroke-195" stroke="#5E4634" stroke-width="3" stroke-linecap="round" stroke-linejoin="round"></path>
                    <path d="M124.2597,35.8173 L124.2627,35.8143 L124.2627,35.8083 C123.5727,29.6553 116.5917,26.4333 111.4617,29.9013 L111.4587,29.9043 L111.4587,29.9103 C112.1487,36.0663 119.1297,39.2853 124.2597,35.8173" id="Fill-197" fill="#C3F270"></path>
                    <path d="M124.2597,35.8173 L124.2627,35.8143 L124.2627,35.8083 C123.5727,29.6553 116.5917,26.4333 111.4617,29.9013 L111.4587,29.9043 L111.4587,29.9103 C112.1487,36.0663 119.1297,39.2853 124.2597,35.8173 L124.2597,35.8173 Z" id="Stroke-199" stroke="#5E4634" stroke-width="3" stroke-linecap="round" stroke-linejoin="round"></path>
                    <path d="M15.5847,96.6366 L15.5877,96.6336 L15.5847,96.6276 C12.6357,91.1826 4.9557,90.8196 1.5027,95.9586 L1.4997,95.9616 L1.5027,95.9676 C4.4547,101.4126 12.1317,101.7756 15.5847,96.6366" id="Fill-201" fill="#C3F270"></path>
                    <path d="M15.5847,96.6366 L15.5877,96.6336 L15.5847,96.6276 C12.6357,91.1826 4.9557,90.8196 1.5027,95.9586 L1.4997,95.9616 L1.5027,95.9676 C4.4547,101.4126 12.1317,101.7756 15.5847,96.6366 L15.5847,96.6366 Z" id="Stroke-203" stroke="#5E4634" stroke-width="3" stroke-linecap="round" stroke-linejoin="round"></path>
                    <path d="M176.2674,136.8846 L176.2674,163.5096 C176.2674,166.2006 170.9784,168.3846 164.4534,168.3846 C157.9314,168.3846 152.6424,166.2006 152.6424,163.5096 L152.6424,136.8846 L176.2674,136.8846 Z" id="Fill-205" fill="#FFE6A7"></path>
                    <path d="M164.3919,136.8846 L164.3919,168.3816 C157.8969,168.3666 152.6409,166.1916 152.6409,163.5096 L152.6409,136.8846 L164.3919,136.8846 Z" id="Fill-207" fill="#EDD194"></path>
                    <path d="M176.2674,136.8846 L176.2674,163.5096 C176.2674,166.2006 170.9784,168.3846 164.4534,168.3846 C157.9314,168.3846 152.6424,166.2006 152.6424,163.5096 L152.6424,136.8846 L176.2674,136.8846 L176.2674,136.8846 Z" id="Stroke-209" stroke="#5E4634" stroke-width="3" stroke-linecap="round" stroke-linejoin="round"></path>
                    <path d="M170.0895,31.3635 L206.2185,130.0935 C207.9375,134.7885 206.3175,140.1435 202.1265,142.8705 C196.0755,146.8095 184.7985,151.1355 164.4555,151.1355 C144.1125,151.1355 132.8355,146.8095 126.7845,142.8705 C122.5935,140.1435 120.9705,134.7885 122.6895,130.0935 L158.8215,31.3635 C160.7415,26.1135 168.1665,26.1135 170.0895,31.3635" id="Fill-211" fill="#C3F270"></path>
                    <path d="M206.2197,130.0935 L170.0907,31.3635 C168.1677,26.1135 160.7427,26.1135 158.8197,31.3635 L155.9397,39.2385 L187.1787,124.6035 C188.8977,129.2985 187.2777,134.6535 183.0837,137.3805 C177.0327,141.3195 165.7557,145.6455 145.4127,145.6455 C139.4997,145.6455 134.3697,145.2705 129.8937,144.6555 C136.4457,148.0095 147.1677,151.1355 164.4537,151.1355 C184.7967,151.1355 196.0737,146.8095 202.1247,142.8705 C206.3187,140.1435 207.9387,134.7885 206.2197,130.0935" id="Fill-213" fill="#B7D86F"></path>
                    <path d="M158.8203,31.3635 L122.6913,130.0935 C120.9723,134.7885 122.5923,140.1435 126.7833,142.8705 C132.8343,146.8095 144.1113,151.1355 164.4543,151.1355 C184.7973,151.1355 196.0743,146.8095 202.1253,142.8705 C206.3163,140.1435 207.9393,134.7885 206.2203,130.0935 L170.0883,31.3635 C168.1683,26.1135 160.7433,26.1135 158.8203,31.3635 L158.8203,31.3635 Z" id="Stroke-215" stroke="#5E4634" stroke-width="3" stroke-linecap="round" stroke-linejoin="round"></path>
                    <path d="M95.4633,102.9837 L95.4633,132.7677 C95.4633,134.0577 92.9313,135.1017 89.8053,135.1017 C86.6823,135.1017 84.1503,134.0577 84.1503,132.7677 L84.1503,102.9837 L95.4633,102.9837 Z" id="Fill-217" fill="#FFE6A7"></path>
                    <path d="M89.3919,102.9837 L89.3919,135.0867 C86.4639,134.9967 84.1509,133.9977 84.1509,132.7677 L84.1509,102.9837 L89.3919,102.9837 Z" id="Fill-219" fill="#EDD194"></path>
                    <path d="M95.4633,102.9837 L95.4633,132.7677 C95.4633,134.0577 92.9313,135.1017 89.8053,135.1017 C86.6823,135.1017 84.1503,134.0577 84.1503,132.7677 L84.1503,102.9837 L95.4633,102.9837 L95.4633,102.9837 Z" id="Stroke-221" stroke="#5E4634" stroke-width="3" stroke-linecap="round" stroke-linejoin="round"></path>
                    <path d="M89.8068,123.543 L89.8068,123.543 C75.5748,123.543 63.9318,111.9 63.9318,97.668 L63.9318,88.341 C63.9318,74.109 75.5748,62.466 89.8068,62.466 L89.8068,62.466 C104.0388,62.466 115.6818,74.109 115.6818,88.341 L115.6818,97.668 C115.6818,111.9 104.0388,123.543 89.8068,123.543" id="Fill-223" fill="#C3F270"></path>
                    <path d="M91.4106,62.5479 C97.0656,67.3029 100.6806,74.4189 100.6806,82.3419 L100.6806,91.6689 C100.6806,105.9009 89.0376,117.5439 74.8056,117.5439 C74.2656,117.5439 73.7376,117.4959 73.2036,117.4629 C77.7066,121.2489 83.4996,123.5439 89.8056,123.5439 C104.0376,123.5439 115.6806,111.9009 115.6806,97.6689 L115.6806,88.3419 C115.6806,74.6499 104.8986,63.3879 91.4106,62.5479" id="Fill-225" fill="#B7D86F"></path>
                    <path d="M89.8065,123.543 L89.8065,123.543 C104.0385,123.543 115.6815,111.9 115.6815,97.668 L115.6815,88.341 C115.6815,74.109 104.0385,62.466 89.8065,62.466 L89.8065,62.466 C75.5745,62.466 63.9315,74.109 63.9315,88.341 L63.9315,97.668 C63.9315,111.9 75.5745,123.543 89.8065,123.543 L89.8065,123.543 Z" id="Stroke-227" stroke="#5E4634" stroke-width="3" stroke-linecap="round" stroke-linejoin="round"></path>
                    <path d="M76.7463,129.0783 L76.7463,132.3273" id="Stroke-229" stroke="#5E4634" stroke-width="3" stroke-linecap="round" stroke-linejoin="round"></path>
                    <path d="M227.9964,143.6514 L227.9964,146.9004" id="Stroke-231" stroke="#5E4634" stroke-width="3" stroke-linecap="round" stroke-linejoin="round"></path>
                    <path d="M152.6424,204.831 L152.6424,208.08" id="Stroke-233" stroke="#5E4634" stroke-width="3" stroke-linecap="round" stroke-linejoin="round"></path>
                    <path d="M145.0842,199.0785 L145.0842,202.3275" id="Stroke-235" stroke="#5E4634" stroke-width="3" stroke-linecap="round" stroke-linejoin="round"></path>
                    <path d="M145.0842,158.3283 L145.0842,161.5773" id="Stroke-237" stroke="#5E4634" stroke-width="3" stroke-linecap="round" stroke-linejoin="round"></path>
                    <path d="M183.4965,155.0784 L183.4965,158.3274" id="Stroke-239" stroke="#5E4634" stroke-width="3" stroke-linecap="round" stroke-linejoin="round"></path>
                    <path d="M188.9964,158.3283 L188.9964,161.5773" id="Stroke-241" stroke="#5E4634" stroke-width="3" stroke-linecap="round" stroke-linejoin="round"></path>
                    <path d="M239.9964,132.7035 L239.9964,138.2265" id="Stroke-243" stroke="#5E4634" stroke-width="3" stroke-linecap="round" stroke-linejoin="round"></path>
                    <path d="M244.8714,135.8283 L244.8714,141.3513" id="Stroke-245" stroke="#5E4634" stroke-width="3" stroke-linecap="round" stroke-linejoin="round"></path>
                    <path d="M71.4963,125.3283 L71.4963,129.0783" id="Stroke-247" stroke="#5E4634" stroke-width="3" stroke-linecap="round" stroke-linejoin="round"></path>
                    <path d="M110.2056,170.9463 L116.8896,170.9463 C117.6246,170.9463 118.2246,170.3463 118.2246,169.6083 L118.2246,169.0533 C118.2246,167.2773 116.7726,165.8223 114.9936,165.8223 L112.0986,165.8223 C110.3226,165.8223 108.8676,167.2773 108.8676,169.0533 L108.8676,169.6083 C108.8676,170.3463 109.4706,170.9463 110.2056,170.9463" id="Fill-249" fill="#EBEBEB"></path>
                    <path d="M110.2056,170.9463 L116.8896,170.9463 C117.6246,170.9463 118.2246,170.3463 118.2246,169.6083 L118.2246,169.0533 C118.2246,167.2773 116.7726,165.8223 114.9936,165.8223 L112.0986,165.8223 C110.3226,165.8223 108.8676,167.2773 108.8676,169.0533 L108.8676,169.6083 C108.8676,170.3463 109.4706,170.9463 110.2056,170.9463 L110.2056,170.9463 Z" id="Stroke-251" stroke="#5E4634" stroke-width="3" stroke-linecap="round" stroke-linejoin="round"></path>
                    <path d="M79.038,17.862 L79.044,17.859 L79.044,17.856 C79.896,11.721 73.932,6.873 68.103,8.964 L68.097,8.967 L68.097,8.97 C67.242,15.105 73.209,19.953 79.038,17.862" id="Fill-253" fill="#C3F270"></path>
                    <path d="M79.038,17.862 L79.044,17.859 L79.044,17.856 C79.896,11.721 73.932,6.873 68.103,8.964 L68.097,8.967 L68.097,8.97 C67.242,15.105 73.209,19.953 79.038,17.862 L79.038,17.862 Z" id="Stroke-255" stroke="#5E4634" stroke-width="3" stroke-linecap="round" stroke-linejoin="round"></path>
                    <path d="M118.6788,66.4803 C92.6598,86.6163 59.5038,97.3263 26.6208,96.2193" id="Stroke-257" stroke="#5E4634" stroke-width="3" stroke-linecap="round" stroke-linejoin="round" stroke-dasharray="6,12"></path>
                    <path d="M25.0518,49.6473 C25.0518,49.6473 21.5508,55.1463 26.3028,57.3963 C32.0748,60.1323 43.3008,56.6463 51.5508,47.6463 C51.5508,47.6463 27.5508,57.1473 25.0518,49.6473" id="Fill-259" fill="#66C66F"></path>
                    <path d="M25.0518,49.6473 C25.0518,49.6473 21.5508,55.1463 26.3028,57.3963 C32.0748,60.1323 43.3008,56.6463 51.5508,47.6463 C51.5508,47.6463 27.5508,57.1473 25.0518,49.6473 L25.0518,49.6473 Z" id="Stroke-261" stroke="#5F4735" stroke-width="3"></path>
                    <path d="M36.3018,34.8972 C36.3018,34.8972 43.5618,30.0432 53.0508,34.8972 C63.8028,40.3962 51.5508,47.6472 51.5508,47.6472 C51.5508,47.6472 35.3028,58.6482 25.3008,50.6472 C17.0148,44.0172 21.8028,27.8982 36.3018,34.8972" id="Fill-263" fill="#66C66F"></path>
                    <path d="M36.3018,34.8972 C36.3018,34.8972 43.5618,30.0432 53.0508,34.8972 C63.8028,40.3962 51.5508,47.6472 51.5508,47.6472 C51.5508,47.6472 35.3028,58.6482 25.3008,50.6472 C17.0148,44.0172 21.8028,27.8982 36.3018,34.8972 L36.3018,34.8972 Z" id="Stroke-265" stroke="#5F4735" stroke-width="3"></path>
                    <path d="M33.8019,52.8972 C33.8019,52.8972 32.5509,46.3962 26.5509,45.1482 C20.5509,43.8972 25.5519,54.6462 33.8019,52.8972" id="Fill-267" fill="#FFFFFF"></path>
                    <path d="M33.8019,52.8972 C33.8019,52.8972 32.5509,46.3962 26.5509,45.1482 C20.5509,43.8972 25.5519,54.6462 33.8019,52.8972 L33.8019,52.8972 Z" id="Stroke-269" stroke="#5F4735" stroke-width="3" stroke-linecap="round"></path>
                    <g id="Group-274">
                        <path d="M36.3018,34.8972 C36.3018,34.8972 39.0528,36.1482 42.3018,37.8972" id="Fill-271" fill="#F27557"></path>
                        <path d="M36.3018,34.8972 C36.3018,34.8972 39.0528,36.1482 42.3018,37.8972" id="Stroke-273" stroke="#5F4735" stroke-width="3" stroke-linecap="round"></path>
                    </g>
                </g>
            </g>
        </g>
    </g>
</svg>