<svg xmlns="http://www.w3.org/2000/svg" width="789" height="312" xmlns:xlink="http://www.w3.org/1999/xlink">
  <defs>
    <path id="a" d="M1.136 54.183c-3.405 30.636 13.383 56.301 37.503 57.33 24.117 1.023 46.428-22.98 49.833-53.619C91.877 27.258 75.089 1.593 50.969.567c-.498-.021-.993-.033-1.491-.033C25.94.537 4.469 24.18 1.136 54.183z"/>
    <path id="c" d="M.616 57.894c3.405 30.639 25.716 54.642 49.836 53.619 24.117-1.029 40.905-26.694 37.5-57.33C84.616 24.18 63.148.537 39.61.534c-.498 0-.993.012-1.491.033C13.999 1.593-2.789 27.258.616 57.894z"/>
  </defs>
  <g fill="none" fill-rule="evenodd">
    <path fill="#E77867" d="M436.512 114.564h-22.86V51.483h22.86v63.081z"/>
    <path fill="#E66444" d="M427.107 114.564h9.405V51.483h-9.405v63.081z"/>
    <path stroke="#5F4735" stroke-width="3" d="M436.512 114.564h-22.86V51.483h22.86v63.081zm-9.5667-16.2576v-34.038" stroke-linecap="round" stroke-linejoin="round"/>
    <path fill="#F0F6FA" d="M454.9239 90.9537l-17.667-14.799h-.192c-2.088 1.656-4.353 3.108-6.744 4.497-1.761 1.845-4.734 2.127-6.993.963-.114-.06-.219-.135-.333-.198-.549-.201-1.071-.519-1.566-.924-.141-.087-.291-.168-.432-.255-.027-.018-.057-.033-.084-.051-.018-.009-.039-.021-.06-.03-.285-.093-.888-.336-.927-.351-1.884-.642-3.243-1.974-3.834-3.651h-2.682l-17.667 14.799c-2.028 1.698-3.198 4.209-3.198 6.855v91.815c0 3.453 1.968 6.588 5.085 8.076 5.496 2.619 15.174 6.114 27.705 6.114 12.537 0 22.218-3.498 27.711-6.12 3.114-1.485 5.079-4.62 5.079-8.07v-91.815c0-2.646-1.173-5.157-3.201-6.855"/>
    <path fill="#DCE7EC" d="M454.9242 90.9537l-17.667-14.799h-.192c-2.082 1.653-4.341 3.102-6.723 4.488-.723.771-1.647 1.287-2.661 1.521l9.576 24.531v82.929c0 3.45-1.965 6.585-5.076 8.07-3.846 1.836-9.783 4.077-17.28 5.271 1.476.234 3.021.42 4.611.567.186.015.363.042.552.057 1.692.141 3.444.225 5.271.225 12.537 0 22.218-3.498 27.711-6.12 3.114-1.485 5.079-4.62 5.079-8.07v-91.815c0-2.646-1.173-5.157-3.201-6.855"/>
    <path stroke="#5F4735" stroke-width="3" d="M437.2578 76.1544l-5.817 4.035c-2.763 1.914-6.36 2.13-9.333.561l-8.697-4.596-17.667 14.799c-2.028 1.698-3.201 4.209-3.201 6.855v91.818c0 3.45 1.971 6.588 5.088 8.073 5.496 2.619 15.174 6.114 27.702 6.114 12.537 0 22.221-3.498 27.714-6.12 3.114-1.485 5.076-4.62 5.076-8.067v-91.818c0-2.646-1.17-5.157-3.198-6.855l-17.667-14.799zM393.0072 96.225c5.826 16.374 58.827 16.353 64.656-.003" stroke-linecap="round" stroke-linejoin="round"/>
    <path fill="#E77867" d="M402.6303 30.309l14.49-6.348c2.055-1.188 4.59-1.188 6.648 0l27.495 16.209-11.043 15.243-20.829-7.995"/>
    <path stroke="#5F4735" stroke-width="3" d="M401.7249 31.431l15.393-7.47c2.058-1.188 4.593-1.188 6.651 0l27.492 16.209" stroke-linecap="round" stroke-linejoin="round"/>
    <path fill="#E77867" d="M440.2218 71.0283l-35.619-20.565c-2.058-1.188-3.324-3.381-3.324-5.757v-12.153c0-1.278 1.386-2.079 2.493-1.44l36.45 21.045v18.87z"/>
    <path stroke="#5F4735" stroke-width="3" d="M404.6028 50.4633c-2.058-1.188-3.324-3.381-3.324-5.757v-12.153c0-1.278 1.386-2.079 2.493-1.44l36.45 21.045v18.87l-35.619-20.565z" stroke-linecap="round" stroke-linejoin="round"/>
    <path fill="#E6EEF3" d="M407.6535 158.7786v-21c0-6.6 5.4-12 12-12s12 5.4 12 12v21c0 6.6-5.4 12-12 12s-12-5.4-12-12z"/>
    <path stroke="#5F4735" stroke-width="3" d="M419.6535 170.7786c-6.6 0-12-5.4-12-12v-21c0-6.6 5.4-12 12-12s12 5.4 12 12v21c0 6.6-5.4 12-12 12z" stroke-linecap="round" stroke-linejoin="round"/>
    <path fill="#E77867" d="M477.0849 43.5153c-4.47-1.473-8.94-2.946-13.413-4.419l-1.809-.489c-1.584-.312-3.225-.477-4.905-.477-13.443 0-24.342 10.5-24.342 23.448 0 10.731 7.482 19.779 17.697 22.566l11.967 4.155"/>
    <path fill="#E77867" d="M456.9579 85.0281l44.346 50.922 30.501-95.823-62.151 3.039-12.696 41.862z"/>
    <path fill="#E77867" d="M578.472 96.8949c-3.405 30.636-25.716 54.642-49.836 53.616-24.117-1.026-40.905-26.691-37.5-57.33 3.405-30.636 25.716-54.639 49.833-53.616 24.12 1.026 40.908 26.694 37.503 57.33"/>
    <g transform="translate(490 39)">
      <mask id="b" fill="#fff">
        <use xlink:href="#a"/>
      </mask>
      <path stroke="#5F4735" stroke-width="3" d="M35.0048 42.1524c-2.043 18.381-15.429 32.784-29.901 32.169-14.469-.615-24.543-19.014-22.5-37.398 2.043-18.381 15.429-29.784 29.901-29.169 14.469.615 24.543 16.017 22.5 34.398z" stroke-linecap="round" stroke-linejoin="round" mask="url(#b)"/>
    </g>
    <path stroke="#5F4735" stroke-width="3" d="M578.472 96.8949c-3.405 30.636-25.716 54.642-49.836 53.616-24.117-1.026-40.905-26.691-37.5-57.33 3.405-30.636 25.716-54.639 49.833-53.616 24.12 1.026 40.908 26.694 37.503 57.33zM473.0298 43.1676c-2.976-1.593-4.515-2.475-9.357-4.071l-1.809-.489c-1.584-.312-3.225-.477-4.905-.477-13.443 0-24.342 10.5-24.342 23.448 0 10.731 7.482 19.779 17.694 22.566l4.806 1.086" stroke-linecap="round" stroke-linejoin="round"/>
    <path stroke="#5F4735" stroke-width="3" d="M452.6238 81.36c-3.384-4.029-5.412-9.159-5.412-14.745 0-12.948 10.896-23.448 24.342-23.448m-3 .4086l63.249-3.45m-30.4989 95.8251l-48.249-54" stroke-linecap="round" stroke-linejoin="round"/>
    <path fill="#F9EBB3" d="M582.8097 295.5l-118.416-68.367v-57.906l255.15-10.575v57.906L582.8097 295.5z"/>
    <path fill="#ECD7A0" d="M581.7078 164.3649v130.5l1.101.636 136.734-78.945v-57.906l-137.835 5.715z"/>
    <path stroke="#5E4634" stroke-width="3" d="M719.5437 158.6514v57.906l-136.734 78.942-118.416-68.367v-57.906" stroke-linecap="round" stroke-linejoin="round"/>
    <path fill="#D2E992" d="M582.8097 258l-118.416-68.367v-20.406l255.15-10.575v20.406L582.8097 258z"/>
    <path fill="#B9DB72" d="M582.7077 164.3235v93.618l.102.06 136.734-78.945v-20.406l-136.836 5.673z"/>
    <path stroke="#5E4634" stroke-width="3" d="M719.5437 161.6514v17.406l-136.734 78.942-118.416-68.367v-20.406" stroke-linecap="round" stroke-linejoin="round"/>
    <path fill="#C1E37F" d="M582.8097 237.5949l-118.416-68.367 136.734-78.945 118.416 68.37-136.734 78.942z"/>
    <path stroke="#5E4634" stroke-width="3" d="M582.8097 237.5949l-118.416-68.367 136.734-78.945 118.416 68.37-136.734 78.942zm0 0v57.906" stroke-linecap="round" stroke-linejoin="round"/>
    <path fill="#FFE6A7" d="M554.8203 151.8846v26.625c0 2.691 5.289 4.875 11.814 4.875 6.522 0 11.811-2.184 11.811-4.875v-26.625h-23.625z"/>
    <path fill="#EDD194" d="M566.6958 151.8846v31.497c6.495-.015 11.751-2.19 11.751-4.872v-26.625h-11.751z"/>
    <path stroke="#5E4634" stroke-width="3" d="M554.8203 151.8846v26.625c0 2.691 5.289 4.875 11.814 4.875 6.522 0 11.811-2.184 11.811-4.875v-26.625h-23.625z" stroke-linecap="round" stroke-linejoin="round"/>
    <path fill="#CEE77E" d="M608.3961 145.0935c1.719 4.695.099 10.05-4.092 12.777-6.051 3.939-17.328 8.265-37.671 8.265s-31.62-4.326-37.671-8.265c-4.191-2.727-5.814-8.082-4.095-12.777l36.132-98.73c1.92-5.25 9.348-5.25 11.268 0l36.129 98.73z"/>
    <path fill="#C1E37F" d="M608.3973 145.0935l-36.129-98.73c-1.923-5.25-9.348-5.25-11.271 0l-2.88 7.875 31.239 85.365c1.719 4.695.099 10.05-4.095 12.777-6.051 3.939-17.328 8.265-37.671 8.265-5.913 0-11.043-.375-15.519-.99 6.552 3.354 17.274 6.48 34.56 6.48 20.343 0 31.62-4.326 37.671-8.265 4.194-2.727 5.814-8.082 4.095-12.777"/>
    <path stroke="#5E4634" stroke-width="3" d="M572.2671 46.3635l36.129 98.73c1.719 4.695.099 10.05-4.092 12.777-6.051 3.939-17.328 8.265-37.671 8.265s-31.62-4.326-37.671-8.265c-4.191-2.727-5.814-8.082-4.095-12.777l36.132-98.73c1.92-5.25 9.348-5.25 11.268 0z" stroke-linecap="round" stroke-linejoin="round"/>
    <path fill="#FFE6A7" d="M635.6241 117.9837v29.784c0 1.29 2.532 2.334 5.658 2.334 3.123 0 5.655-1.044 5.655-2.334v-29.784h-11.313z"/>
    <path fill="#EDD194" d="M641.6958 117.9837v32.103c2.928-.09 5.241-1.089 5.241-2.319v-29.784h-5.241z"/>
    <path stroke="#5E4634" stroke-width="3" d="M635.6241 117.9837v29.784c0 1.29 2.532 2.334 5.658 2.334 3.123 0 5.655-1.044 5.655-2.334v-29.784h-11.313z" stroke-linecap="round" stroke-linejoin="round"/>
    <path fill="#CEE77E" d="M641.2809 138.543c-14.232 0-25.875-11.643-25.875-25.875v-9.327c0-14.232 11.643-25.875 25.875-25.875s25.875 11.643 25.875 25.875v9.327c0 14.232-11.643 25.875-25.875 25.875"/>
    <path fill="#C1E37F" d="M642.8847 77.5479c5.655 4.755 9.27 11.871 9.27 19.794v9.327c0 14.232-11.643 25.875-25.875 25.875-.54 0-1.068-.048-1.602-.081 4.503 3.786 10.296 6.081 16.602 6.081 14.232 0 25.875-11.643 25.875-25.875v-9.327c0-13.692-10.782-24.954-24.27-25.794"/>
    <path stroke="#5E4634" stroke-width="3" d="M641.2809 138.543c-14.232 0-25.875-11.643-25.875-25.875v-9.327c0-14.232 11.643-25.875 25.875-25.875s25.875 11.643 25.875 25.875v9.327c0 14.232-11.643 25.875-25.875 25.875zm13.0605 5.5353v3.249m-151.2501 11.3241v3.249m75.354 57.9306v3.249m7.5582-9.0015v3.249m0-43.9992v3.249m-38.4123-6.4989v3.249m-5.4999.0009v3.249m-51-28.8738v5.523m-4.875-2.3982v5.523m173.3751-16.023v3.75" stroke-linecap="round" stroke-linejoin="round"/>
    <path fill="#EBEBEB" d="M620.8821 185.9463h-6.684c-.735 0-1.335-.6-1.335-1.338v-.555c0-1.776 1.452-3.231 3.231-3.231h2.895c1.776 0 3.231 1.455 3.231 3.231v.555c0 .738-.603 1.338-1.338 1.338"/>
    <path stroke="#5E4634" stroke-width="3" d="M620.8821 185.9463h-6.684c-.735 0-1.335-.6-1.335-1.338v-.555c0-1.776 1.452-3.231 3.231-3.231h2.895c1.776 0 3.231 1.455 3.231 3.231v.555c0 .738-.603 1.338-1.338 1.338z" stroke-linecap="round" stroke-linejoin="round"/>
    <path fill="#E77867" d="M348.576 114.564h22.86V51.483h-22.86v63.081z"/>
    <path fill="#E66444" d="M357.981 114.564h-9.405V51.483h9.405v63.081z"/>
    <path stroke="#5F4735" stroke-width="3" d="M348.576 114.564h22.86V51.483h-22.86v63.081zm9.5664-16.2576v-34.038" stroke-linecap="round" stroke-linejoin="round"/>
    <path fill="#F0F6FA" d="M389.3436 90.9537l-17.667-14.799h-.192c-2.088 1.656-4.353 3.108-6.744 4.497-1.761 1.845-4.734 2.127-6.993.963-.114-.06-.219-.135-.333-.198-.549-.201-1.071-.519-1.566-.924-.141-.087-.291-.168-.432-.255-.027-.018-.057-.033-.084-.051-.018-.009-.039-.021-.06-.03-.285-.093-.888-.336-.927-.351-1.884-.642-3.243-1.974-3.834-3.651h-2.682l-17.667 14.799c-2.028 1.698-3.198 4.209-3.198 6.855v91.815c0 3.453 1.968 6.588 5.085 8.076 5.496 2.619 15.174 6.114 27.705 6.114 12.537 0 22.218-3.498 27.711-6.12 3.114-1.485 5.079-4.62 5.079-8.07v-91.815c0-2.646-1.173-5.157-3.201-6.855"/>
    <path fill="#DCE7EC" d="M389.3439 90.9537l-17.667-14.799h-.192c-2.082 1.653-4.341 3.102-6.723 4.488-.723.771-1.647 1.287-2.661 1.521l9.576 24.531v82.929c0 3.45-1.965 6.585-5.076 8.07-3.846 1.836-9.783 4.077-17.28 5.271 1.476.234 3.021.42 4.611.567.186.015.363.042.552.057 1.692.141 3.444.225 5.271.225 12.537 0 22.218-3.498 27.711-6.12 3.114-1.485 5.079-4.62 5.079-8.07v-91.815c0-2.646-1.173-5.157-3.201-6.855"/>
    <path stroke="#5F4735" stroke-width="3" d="M347.8299 76.1544l5.817 4.035c2.763 1.914 6.36 2.13 9.333.561l8.697-4.596 17.667 14.799c2.028 1.698 3.201 4.209 3.201 6.855v91.818c0 3.45-1.971 6.588-5.088 8.073-5.496 2.619-15.174 6.114-27.702 6.114-12.537 0-22.221-3.498-27.714-6.12-3.114-1.485-5.076-4.62-5.076-8.067v-91.818c0-2.646 1.17-5.157 3.198-6.855l17.667-14.799zm44.2506 20.0706c-5.826 16.374-58.827 16.353-64.656-.003" stroke-linecap="round" stroke-linejoin="round"/>
    <path fill="#E77867" d="M382.4571 30.309l-14.49-6.348c-2.055-1.188-4.59-1.188-6.648 0l-27.495 16.209 11.043 15.243 20.829-7.995"/>
    <path stroke="#5F4735" stroke-width="3" d="M383.3628 31.431l-15.393-7.47c-2.058-1.188-4.593-1.188-6.651 0l-27.492 16.209" stroke-linecap="round" stroke-linejoin="round"/>
    <path fill="#E77867" d="M344.8659 71.0283l35.619-20.565c2.058-1.188 3.324-3.381 3.324-5.757v-12.153c0-1.278-1.386-2.079-2.493-1.44l-36.45 21.045v18.87z"/>
    <path stroke="#5F4735" stroke-width="3" d="M344.8659 71.0283l35.619-20.565c2.058-1.188 3.324-3.381 3.324-5.757v-12.153c0-1.278-1.386-2.079-2.493-1.44l-36.45 21.045v18.87z" stroke-linecap="round" stroke-linejoin="round"/>
    <path fill="#E6EEF3" d="M365.4339 170.7786c6.6 0 12-5.4 12-12v-21c0-6.6-5.4-12-12-12s-12 5.4-12 12v21c0 6.6 5.4 12 12 12"/>
    <path stroke="#5F4735" stroke-width="3" d="M365.4339 170.7786c6.6 0 12-5.4 12-12v-21c0-6.6-5.4-12-12-12s-12 5.4-12 12v21c0 6.6 5.4 12 12 12z" stroke-linecap="round" stroke-linejoin="round"/>
    <path fill="#E77867" d="M308.0028 43.5153c4.47-1.473 8.94-2.946 13.413-4.419l1.809-.489c1.584-.312 3.225-.477 4.905-.477 13.443 0 24.342 10.5 24.342 23.448 0 10.731-7.482 19.779-17.697 22.566l-11.967 4.155"/>
    <path fill="#E77867" d="M328.1298 85.0281l-44.346 50.922-30.501-95.823 62.148 3.039 12.699 41.862z"/>
    <path fill="#E77867" d="M206.6157 96.8949c3.405 30.636 25.716 54.642 49.836 53.616 24.117-1.026 40.905-26.691 37.5-57.33-3.405-30.636-25.716-54.639-49.833-53.616-24.12 1.026-40.908 26.694-37.503 57.33"/>
    <g transform="translate(206 39)">
      <mask id="d" fill="#fff">
        <use xlink:href="#c"/>
      </mask>
      <path stroke="#5F4735" stroke-width="3" d="M54.0829 42.1524c2.043 18.381 15.429 32.784 29.901 32.169 14.469-.615 24.543-19.014 22.5-37.398-2.043-18.381-15.429-29.784-29.901-29.169-14.469.615-24.543 16.017-22.5 34.398z" stroke-linecap="round" stroke-linejoin="round" mask="url(#d)"/>
    </g>
    <path stroke="#5F4735" stroke-width="3" d="M206.6157 96.8949c3.405 30.636 25.716 54.642 49.836 53.616 24.117-1.026 40.905-26.691 37.5-57.33-3.405-30.636-25.716-54.639-49.833-53.616-24.12 1.026-40.908 26.694-37.503 57.33zm105.4422-53.7273c2.976-1.593 4.515-2.475 9.357-4.071l1.809-.489c1.584-.312 3.225-.477 4.905-.477 13.443 0 24.342 10.5 24.342 23.448 0 10.731-7.482 19.779-17.694 22.566l-4.806 1.086" stroke-linecap="round" stroke-linejoin="round"/>
    <path stroke="#5F4735" stroke-width="3" d="M332.4639 81.36c3.384-4.029 5.412-9.159 5.412-14.745 0-12.948-10.896-23.448-24.342-23.448m3 .4086l-63.249-3.45m30.4989 95.8251l48.249-54" stroke-linecap="round" stroke-linejoin="round"/>
    <path fill="#ECD7A0" d="M202.278 295.5l118.416-68.367v-57.906l-255.15-10.575v57.906L202.278 295.5z"/>
    <path fill="#F9EBB3" d="M203.3799 164.3649v130.5l-1.101.636-136.734-78.945v-57.906l137.835 5.715z"/>
    <path stroke="#5D4A40" stroke-width="3" d="M65.5437 158.6514v57.906l136.734 78.942 118.416-68.367v-57.906" stroke-linecap="round" stroke-linejoin="round"/>
    <path fill="#B9DB72" d="M202.278 258l118.416-68.367v-20.406l-255.15-10.575v20.406L202.278 258z"/>
    <path fill="#D2E992" d="M202.3797 164.3235v93.618l-.102.06-136.734-78.945v-20.406l136.836 5.673z"/>
    <path stroke="#5E4634" stroke-width="3" d="M65.5437 161.6514v17.406l136.734 78.942 118.416-68.367v-20.406" stroke-linecap="round" stroke-linejoin="round"/>
    <path fill="#C1E37F" d="M202.278 237.5949l118.416-68.367-136.734-78.945-118.416 68.37 136.734 78.942z"/>
    <path stroke="#5E4634" stroke-width="3" d="M202.278 237.5949l118.416-68.367-136.734-78.945-118.416 68.37 136.734 78.942zm0 0v57.906" stroke-linecap="round" stroke-linejoin="round"/>
    <path fill="#FFE6A7" d="M230.2674 151.8846v26.625c0 2.691-5.289 4.875-11.814 4.875-6.522 0-11.811-2.184-11.811-4.875v-26.625h23.625z"/>
    <path fill="#EDD194" d="M218.3919 151.8846v31.497c-6.495-.015-11.751-2.19-11.751-4.872v-26.625h11.751z"/>
    <path stroke="#5E4634" stroke-width="3" d="M230.2674 151.8846v26.625c0 2.691-5.289 4.875-11.814 4.875-6.522 0-11.811-2.184-11.811-4.875v-26.625h23.625z" stroke-linecap="round" stroke-linejoin="round"/>
    <path fill="#CEE77E" d="M224.0895 46.3635l36.129 98.73c1.719 4.695.099 10.05-4.092 12.777-6.051 3.939-17.328 8.265-37.671 8.265s-31.62-4.326-37.671-8.265c-4.191-2.727-5.814-8.082-4.095-12.777l36.132-98.73c1.92-5.25 9.345-5.25 11.268 0"/>
    <path fill="#C1E37F" d="M260.2197 145.0935l-36.129-98.73c-1.923-5.25-9.348-5.25-11.271 0l-2.88 7.875 31.239 85.365c1.719 4.695.099 10.05-4.095 12.777-6.051 3.939-17.328 8.265-37.671 8.265-5.913 0-11.043-.375-15.519-.99 6.552 3.354 17.274 6.48 34.56 6.48 20.343 0 31.62-4.326 37.671-8.265 4.194-2.727 5.814-8.082 4.095-12.777"/>
    <path stroke="#5E4634" stroke-width="3" d="M212.8203 46.3635l-36.129 98.73c-1.719 4.695-.099 10.05 4.092 12.777 6.051 3.939 17.328 8.265 37.671 8.265s31.62-4.326 37.671-8.265c4.191-2.727 5.814-8.082 4.095-12.777l-36.132-98.73c-1.92-5.25-9.345-5.25-11.268 0z" stroke-linecap="round" stroke-linejoin="round"/>
    <path fill="#FFE6A7" d="M149.4633 117.9837v29.784c0 1.29-2.532 2.334-5.658 2.334-3.123 0-5.655-1.044-5.655-2.334v-29.784h11.313z"/>
    <path fill="#EDD194" d="M143.3919 117.9837v32.103c-2.928-.09-5.241-1.089-5.241-2.319v-29.784h5.241z"/>
    <path stroke="#5E4634" stroke-width="3" d="M149.4633 117.9837v29.784c0 1.29-2.532 2.334-5.658 2.334-3.123 0-5.655-1.044-5.655-2.334v-29.784h11.313z" stroke-linecap="round" stroke-linejoin="round"/>
    <path fill="#CEE77E" d="M143.8068 138.543c-14.232 0-25.875-11.643-25.875-25.875v-9.327c0-14.232 11.643-25.875 25.875-25.875s25.875 11.643 25.875 25.875v9.327c0 14.232-11.643 25.875-25.875 25.875"/>
    <path fill="#C1E37F" d="M145.4106 77.5479c5.655 4.755 9.27 11.871 9.27 19.794v9.327c0 14.232-11.643 25.875-25.875 25.875-.54 0-1.068-.048-1.602-.081 4.503 3.786 10.296 6.081 16.602 6.081 14.232 0 25.875-11.643 25.875-25.875v-9.327c0-13.692-10.782-24.954-24.27-25.794"/>
    <path stroke="#5E4634" stroke-width="3" d="M143.8065 138.543c14.232 0 25.875-11.643 25.875-25.875v-9.327c0-14.232-11.643-25.875-25.875-25.875s-25.875 11.643-25.875 25.875v9.327c0 14.232 11.643 25.875 25.875 25.875zm-13.0602 5.5353v3.249m151.2501 11.3241v3.249m-75.354 57.9306v3.249m-7.5582-9.0015v3.249m0-43.9992v3.249m38.4123-6.4989v3.249m5.4999.0009v3.249m51-28.8738v5.523m4.875-2.3982v5.523m-173.3751-16.023v3.75" stroke-linecap="round" stroke-linejoin="round"/>
    <path fill="#EBEBEB" d="M164.2056 185.9463h6.684c.735 0 1.335-.6 1.335-1.338v-.555c0-1.776-1.452-3.231-3.231-3.231h-2.895c-1.776 0-3.231 1.455-3.231 3.231v.555c0 .738.603 1.338 1.338 1.338"/>
    <path stroke="#5E4634" stroke-width="3" d="M164.2056 185.9463h6.684c.735 0 1.335-.6 1.335-1.338v-.555c0-1.776-1.452-3.231-3.231-3.231h-2.895c-1.776 0-3.231 1.455-3.231 3.231v.555c0 .738.603 1.338 1.338 1.338z" stroke-linecap="round" stroke-linejoin="round"/>
    <path fill="#F27557" d="M90.3018 49.8972s2.751 1.251 6 3"/>
  </g>
</svg>