<svg xmlns="http://www.w3.org/2000/svg" width="681" height="276" xmlns:xlink="http://www.w3.org/1999/xlink">
  <defs>
    <path id="a" d="M2.136 54.183c-3.405 30.636 13.383 56.301 37.503 57.33 24.117 1.023 46.428-22.98 49.833-53.619C92.877 27.258 76.089 1.593 51.969.567c-.498-.021-.993-.033-1.491-.033C26.94.537 5.469 24.18 2.136 54.183z"/>
    <path id="c" d="M0 1.977h680.514V282H0V1.977z"/>
    <path id="e" d="M40.119.567C15.999 1.593-.789 27.258 2.616 57.894c3.405 30.639 25.716 54.642 49.836 53.619 24.117-1.029 40.905-26.694 37.5-57.33C86.616 24.18 65.148.537 41.61.534c-.498 0-.993.012-1.491.033z"/>
  </defs>
  <g fill="none" fill-rule="evenodd">
    <path fill="#FF7555" d="M382.512 93.564h-22.86V30.483h22.86v63.081z"/>
    <path fill="#F16338" d="M373.107 93.564h9.405V30.483h-9.405v63.081z"/>
    <path stroke="#5F4735" stroke-width="3" d="M382.512 93.564h-22.86V30.483h22.86v63.081zm-9.5667-16.2576v-34.038" stroke-linecap="round" stroke-linejoin="round"/>
    <path fill="#EBF2F7" d="M400.9239 69.9537l-17.667-14.799h-.192c-2.088 1.656-4.353 3.108-6.744 4.497-1.761 1.845-4.734 2.127-6.993.963-.114-.06-.219-.135-.333-.198-.549-.201-1.071-.519-1.566-.924-.141-.087-.291-.168-.432-.255-.027-.018-.057-.033-.084-.051-.018-.009-.039-.021-.06-.03-.285-.093-.888-.336-.927-.351-1.884-.642-3.243-1.974-3.834-3.651h-2.682l-17.667 14.799c-2.028 1.698-3.198 4.209-3.198 6.855v91.815c0 3.453 1.968 6.588 5.085 8.076 5.496 2.619 15.174 6.114 27.705 6.114 12.537 0 22.218-3.498 27.711-6.12 3.114-1.485 5.079-4.62 5.079-8.07v-91.815c0-2.646-1.173-5.157-3.201-6.855"/>
    <path fill="#DCE7EC" d="M400.9242 69.9537l-17.667-14.799h-.192c-2.082 1.653-4.341 3.102-6.723 4.488-.723.771-1.647 1.287-2.661 1.521l9.576 24.531v82.929c0 3.45-1.965 6.585-5.076 8.07-3.846 1.836-9.783 4.077-17.28 5.271 1.476.234 3.021.42 4.611.567.186.015.363.042.552.057 1.692.141 3.444.225 5.271.225 12.537 0 22.218-3.498 27.711-6.12 3.114-1.485 5.079-4.62 5.079-8.07v-91.815c0-2.646-1.173-5.157-3.201-6.855"/>
    <path stroke="#5F4735" stroke-width="3" d="M383.2578 55.1544l-5.817 4.035c-2.763 1.914-6.36 2.13-9.333.561l-8.697-4.596-17.667 14.799c-2.028 1.698-3.201 4.209-3.201 6.855v91.818c0 3.45 1.971 6.588 5.088 8.073 5.496 2.619 15.174 6.114 27.702 6.114 12.537 0 22.221-3.498 27.714-6.12 3.114-1.485 5.076-4.62 5.076-8.067v-91.818c0-2.646-1.17-5.157-3.198-6.855l-17.667-14.799zM339.0072 75.225c5.826 16.374 58.827 16.353 64.656-.003" stroke-linecap="round" stroke-linejoin="round"/>
    <path fill="#FF7555" d="M348.6303 9.309l14.49-6.348c2.055-1.188 4.59-1.188 6.648 0l27.495 16.209-11.043 15.243-20.829-7.995"/>
    <path stroke="#5F4735" stroke-width="3" d="M347.7249 10.431l15.393-7.47c2.058-1.188 4.593-1.188 6.651 0l27.492 16.209" stroke-linecap="round" stroke-linejoin="round"/>
    <path fill="#FF7555" d="M386.2218 50.0283l-35.619-20.565c-2.058-1.188-3.324-3.381-3.324-5.757v-12.153c0-1.278 1.386-2.079 2.493-1.44l36.45 21.045v18.87z"/>
    <path stroke="#5F4735" stroke-width="3" d="M386.2218 50.0283l-35.619-20.565c-2.058-1.188-3.324-3.381-3.324-5.757v-12.153c0-1.278 1.386-2.079 2.493-1.44l36.45 21.045v18.87z" stroke-linecap="round" stroke-linejoin="round"/>
    <path fill="#DFE8EE" d="M365.6535 149.7786c-6.6 0-12-5.4-12-12v-21c0-6.6 5.4-12 12-12s12 5.4 12 12v21c0 6.6-5.4 12-12 12"/>
    <path stroke="#5F4735" stroke-width="3" d="M365.6535 149.7786c-6.6 0-12-5.4-12-12v-21c0-6.6 5.4-12 12-12s12 5.4 12 12v21c0 6.6-5.4 12-12 12z" stroke-linecap="round" stroke-linejoin="round"/>
    <path fill="#FF7555" d="M423.0849 22.5153c-4.47-1.473-8.94-2.946-13.413-4.419l-1.809-.489c-1.584-.312-3.225-.477-4.905-.477-13.443 0-24.342 10.5-24.342 23.448 0 10.731 7.482 19.779 17.697 22.566l11.967 4.155"/>
    <path fill="#FF7555" d="M402.9579 64.0281l44.346 50.922 30.501-95.823-62.151 3.039-12.696 41.862z"/>
    <path fill="#F96335" d="M524.472 75.8949c-3.405 30.636-25.716 54.642-49.836 53.616-24.117-1.026-40.905-26.691-37.5-57.33 3.405-30.636 25.716-54.639 49.833-53.616 24.12 1.026 40.908 26.694 37.503 57.33"/>
    <g transform="translate(435 18)">
      <mask id="b" fill="#fff">
        <use xlink:href="#a"/>
      </mask>
      <path stroke="#5F4735" stroke-width="3" d="M36.0048 42.1524c-2.043 18.381-15.429 32.784-29.901 32.169-14.469-.615-24.543-19.014-22.5-37.398 2.043-18.381 15.429-29.784 29.901-29.169 14.469.615 24.543 16.017 22.5 34.398z" stroke-linecap="round" stroke-linejoin="round" mask="url(#b)"/>
    </g>
    <g transform="translate(0 -6)">
      <path stroke="#5F4735" stroke-width="3" d="M524.472 81.8949c-3.405 30.636-25.716 54.642-49.836 53.616-24.117-1.026-40.905-26.691-37.5-57.33 3.405-30.636 25.716-54.639 49.833-53.616 24.12 1.026 40.908 26.694 37.503 57.33zM419.0298 28.1676c-2.976-1.593-4.515-2.475-9.357-4.071l-1.809-.489c-1.584-.312-3.225-.477-4.905-.477-13.443 0-24.342 10.5-24.342 23.448 0 10.731 7.482 19.779 17.694 22.566l4.806 1.086" stroke-linecap="round" stroke-linejoin="round"/>
      <path stroke="#5F4735" stroke-width="3" d="M398.6238 66.36c-3.384-4.029-5.412-9.159-5.412-14.745 0-12.948 10.896-23.448 24.342-23.448m-3 .4086l63.249-3.45m-30.4989 95.8251l-48.249-54" stroke-linecap="round" stroke-linejoin="round"/>
      <path fill="#FFE6A7" d="M528.8097 280.5l-118.416-68.367v-57.906l255.15-10.575v57.906L528.8097 280.5z"/>
      <path fill="#EDD194" d="M527.7078 149.3649v130.5l1.101.636 136.734-78.945v-57.906l-137.835 5.715z"/>
      <path stroke="#5E4634" stroke-width="3" d="M665.5437 143.6514v57.906l-136.734 78.942-118.416-68.367v-57.906" stroke-linecap="round" stroke-linejoin="round"/>
      <path fill="#C7E082" d="M528.8097 243l-118.416-68.367v-20.406l255.15-10.575v20.406L528.8097 243z"/>
      <path fill="#B0CC64" d="M528.7077 149.3235v93.618l.102.06 136.734-78.945v-20.406l-136.836 5.673z"/>
      <path stroke="#5E4634" stroke-width="3" d="M665.5437 146.6514v17.406l-136.734 78.942-118.416-68.367v-20.406" stroke-linecap="round" stroke-linejoin="round"/>
      <path fill="#B7D86F" d="M528.8097 222.5949l-118.416-68.367 136.734-78.945 118.416 68.37-136.734 78.942z"/>
      <path stroke="#5E4634" stroke-width="3" d="M528.8097 222.5949l-118.416-68.367 136.734-78.945 118.416 68.37-136.734 78.942zm0 0v57.906" stroke-linecap="round" stroke-linejoin="round"/>
      <path fill="#C3F270" d="M552.828 35.8173l-.003-.003v-.006c.69-6.153 7.671-9.375 12.801-5.907l.003.003v.006c-.69 6.156-7.671 9.375-12.801 5.907"/>
      <path stroke="#5E4634" stroke-width="3" d="M552.828 35.8173l-.003-.003v-.006c.69-6.153 7.671-9.375 12.801-5.907l.003.003v.006c-.69 6.156-7.671 9.375-12.801 5.907z" stroke-linecap="round" stroke-linejoin="round"/>
      <path fill="#C3F270" d="M573.7017 9.9903v-.006l.003-.003c4.515-4.236 11.916-2.163 13.575 3.804v.003l-.003.006c-4.515 4.236-11.916 2.163-13.575-3.804"/>
      <path stroke="#5E4634" stroke-width="3" d="M573.7017 9.9903v-.006l.003-.003c4.515-4.236 11.916-2.163 13.575 3.804v.003l-.003.006c-4.515 4.236-11.916 2.163-13.575-3.804z" stroke-linecap="round" stroke-linejoin="round"/>
      <path fill="#FFE6A7" d="M500.8203 136.8846v26.625c0 2.691 5.289 4.875 11.814 4.875 6.522 0 11.811-2.184 11.811-4.875v-26.625h-23.625z"/>
      <path fill="#EDD194" d="M512.6958 136.8846v31.497c6.495-.015 11.751-2.19 11.751-4.872v-26.625h-11.751z"/>
      <path stroke="#5E4634" stroke-width="3" d="M500.8203 136.8846v26.625c0 2.691 5.289 4.875 11.814 4.875 6.522 0 11.811-2.184 11.811-4.875v-26.625h-23.625z" stroke-linecap="round" stroke-linejoin="round"/>
      <path fill="#C3F270" d="M518.2671 31.3635l36.129 98.73c1.719 4.695.099 10.05-4.092 12.777-6.051 3.939-17.328 8.265-37.671 8.265s-31.62-4.326-37.671-8.265c-4.191-2.727-5.814-8.082-4.095-12.777l36.132-98.73c1.92-5.25 9.348-5.25 11.268 0"/>
      <path fill="#B7D86F" d="M554.3973 130.0935l-36.129-98.73c-1.923-5.25-9.348-5.25-11.271 0l-2.88 7.875 31.239 85.365c1.719 4.695.099 10.05-4.095 12.777-6.051 3.939-17.328 8.265-37.671 8.265-5.913 0-11.043-.375-15.519-.99 6.552 3.354 17.274 6.48 34.56 6.48 20.343 0 31.62-4.326 37.671-8.265 4.194-2.727 5.814-8.082 4.095-12.777"/>
      <path stroke="#5E4634" stroke-width="3" d="M518.2671 31.3635l36.129 98.73c1.719 4.695.099 10.05-4.092 12.777-6.051 3.939-17.328 8.265-37.671 8.265s-31.62-4.326-37.671-8.265c-4.191-2.727-5.814-8.082-4.095-12.777l36.132-98.73c1.92-5.25 9.348-5.25 11.268 0z" stroke-linecap="round" stroke-linejoin="round"/>
      <path fill="#FFE6A7" d="M581.6241 102.9837v29.784c0 1.29 2.532 2.334 5.658 2.334 3.123 0 5.655-1.044 5.655-2.334v-29.784h-11.313z"/>
      <path fill="#EDD194" d="M587.6958 102.9837v32.103c2.928-.09 5.241-1.089 5.241-2.319v-29.784h-5.241z"/>
      <path stroke="#5E4634" stroke-width="3" d="M581.6241 102.9837v29.784c0 1.29 2.532 2.334 5.658 2.334 3.123 0 5.655-1.044 5.655-2.334v-29.784h-11.313z" stroke-linecap="round" stroke-linejoin="round"/>
      <path fill="#C3F270" d="M587.2809 123.543c-14.232 0-25.875-11.643-25.875-25.875v-9.327c0-14.232 11.643-25.875 25.875-25.875s25.875 11.643 25.875 25.875v9.327c0 14.232-11.643 25.875-25.875 25.875"/>
      <path fill="#B7D86F" d="M588.8847 62.5479c5.655 4.755 9.27 11.871 9.27 19.794v9.327c0 14.232-11.643 25.875-25.875 25.875-.54 0-1.068-.048-1.602-.081 4.503 3.786 10.296 6.081 16.602 6.081 14.232 0 25.875-11.643 25.875-25.875v-9.327c0-13.692-10.782-24.954-24.27-25.794"/>
      <path stroke="#5E4634" stroke-width="3" d="M587.2809 123.543c-14.232 0-25.875-11.643-25.875-25.875v-9.327c0-14.232 11.643-25.875 25.875-25.875s25.875 11.643 25.875 25.875v9.327c0 14.232-11.643 25.875-25.875 25.875zm13.0605 5.5353v3.249m-151.2501 11.3241v3.249m75.354 57.9306v3.249m7.5582-9.0015v3.249m0-43.9992v3.249m-38.4123-6.4989v3.249m-5.4999.0009v3.249m-51-28.8738v5.523m-4.875-2.3982v5.523m173.3751-16.023v3.75" stroke-linecap="round" stroke-linejoin="round"/>
      <path fill="#EBEBEB" d="M566.8821 170.9463h-6.684c-.735 0-1.335-.6-1.335-1.338v-.555c0-1.776 1.452-3.231 3.231-3.231h2.895c1.776 0 3.231 1.455 3.231 3.231v.555c0 .738-.603 1.338-1.338 1.338"/>
      <path stroke="#5E4634" stroke-width="3" d="M566.8821 170.9463h-6.684c-.735 0-1.335-.6-1.335-1.338v-.555c0-1.776 1.452-3.231 3.231-3.231h2.895c1.776 0 3.231 1.455 3.231 3.231v.555c0 .738-.603 1.338-1.338 1.338z" stroke-linecap="round" stroke-linejoin="round"/>
      <path stroke="#5E4634" stroke-width="3" d="M598.0356 18.6285c5.874.06 10.719 4.548 14.31 9.198 2.256 2.922 4.305 6.078 5.388 9.606 3.162 10.284-2.544 21.402-10.299 28.857-7.359 7.077-17.253 12.195-27.432 11.46m42.0591 13.4211c10.497 3.861 22.188 4.398 32.991 1.512" stroke-linecap="round" stroke-linejoin="round" stroke-dasharray="6 12"/>
      <path fill="#C3F270" d="M657.2475 91.9143l-.006-.003v-.006c-.099-6.192 6.414-10.275 11.943-7.491l.006.003v.006c.099 6.192-6.411 10.275-11.943 7.491"/>
      <path stroke="#5E4634" stroke-width="3" d="M657.2475 91.9143l-.006-.003v-.006c-.099-6.192 6.414-10.275 11.943-7.491l.006.003v.006c.099 6.192-6.411 10.275-11.943 7.491z" stroke-linecap="round" stroke-linejoin="round"/>
      <path fill="#885C53" d="M678.351 56.2053s4.251 4.749-8.751 5.751c-12.999.999-1.749-16.002 8.751-5.751"/>
      <path stroke="#5F4735" stroke-width="3" d="M678.351 56.2053s4.251 4.749-8.751 5.751c-12.999.999-1.749-16.002 8.751-5.751z"/>
      <path fill="#F27557" d="M648.351 49.9551s5.25-12.501 17.001-9.249c11.748 3.249 12.423 21.459-3.501 24.999-13.5 3-18.501 2.001-20.499-3.75-2.472-7.104 6.999-12 6.999-12"/>
      <path stroke="#5F4735" stroke-width="3" d="M648.351 49.9551s5.25-12.501 17.001-9.249c11.748 3.249 12.423 21.459-3.501 24.999-13.5 3-18.501 2.001-20.499-3.75-2.472-7.104 6.999-12 6.999-12z" stroke-linecap="round" stroke-linejoin="round"/>
      <path fill="#FFF" d="M670.6011 50.9553s2.001-6.501-5.25-6.249c-7.251.249-3 6.999-3 6.999s3.75-1.749 8.25-.75"/>
      <path stroke="#5F4735" stroke-width="3" d="M670.6011 50.9553s2.001-6.501-5.25-6.249c-7.251.249-3 6.999-3 6.999s3.75-1.749 8.25-.75z" stroke-linecap="round"/>
      <path fill="#885C53" d="M667.3512 54.2052c-6.732-1.347-17.25 3-18.249 9.249-.921 5.742 11.178 3.102 15.249 1.251 5.499-2.499 14.25-8.25 3-10.5"/>
      <path stroke="#5F4735" stroke-width="3" d="M667.3512 54.2052c-6.732-1.347-17.25 3-18.249 9.249-.921 5.742 11.178 3.102 15.249 1.251 5.499-2.499 14.25-8.25 3-10.5z"/>
      <path fill="#F27557" d="M652.3512 58.2051s6.249-4.251 9.999-6.501c3.75-2.25 10.002-1.749 16.002 4.5 0 0-4.752-3-12.252 2.25-4.122 2.886-13.749-.249-13.749-.249"/>
      <path stroke="#5F4735" stroke-width="3" d="M652.3512 58.2051s6.249-4.251 9.999-6.501c3.75-2.25 10.002-1.749 16.002 4.5 0 0-4.752-3-12.252 2.25-4.122 2.886-13.749-.249-13.749-.249z" stroke-linecap="round" stroke-linejoin="round"/>
      <mask id="d" fill="#fff">
        <use xlink:href="#c"/>
      </mask>
      <path fill="#FF7555" d="M294.576 99.564h22.86V36.483h-22.86v63.081z" mask="url(#d)"/>
      <path fill="#F16338" d="M303.981 99.564h-9.405V36.483h9.405v63.081z" mask="url(#d)"/>
      <path stroke="#5F4735" stroke-width="3" d="M294.576 99.564h22.86V36.483h-22.86v63.081zm9.5664-16.2576v-34.038" stroke-linecap="round" stroke-linejoin="round" mask="url(#d)"/>
      <path fill="#EBF2F7" d="M335.3436 75.9537l-17.667-14.799h-.192c-2.088 1.656-4.353 3.108-6.744 4.497-1.761 1.845-4.734 2.127-6.993.963-.114-.06-.219-.135-.333-.198-.549-.201-1.071-.519-1.566-.924-.141-.087-.291-.168-.432-.255-.027-.018-.057-.033-.084-.051-.018-.009-.039-.021-.06-.03-.285-.093-.888-.336-.927-.351-1.884-.642-3.243-1.974-3.834-3.651h-2.682l-17.667 14.799c-2.028 1.698-3.198 4.209-3.198 6.855v91.815c0 3.453 1.968 6.588 5.085 8.076 5.496 2.619 15.174 6.114 27.705 6.114 12.537 0 22.218-3.498 27.711-6.12 3.114-1.485 5.079-4.62 5.079-8.07v-91.815c0-2.646-1.173-5.157-3.201-6.855" mask="url(#d)"/>
      <path fill="#DCE7EC" d="M335.3439 75.9537l-17.667-14.799h-.192c-2.082 1.653-4.341 3.102-6.723 4.488-.723.771-1.647 1.287-2.661 1.521l9.576 24.531v82.929c0 3.45-1.965 6.585-5.076 8.07-3.846 1.836-9.783 4.077-17.28 5.271 1.476.234 3.021.42 4.611.567.186.015.363.042.552.057 1.692.141 3.444.225 5.271.225 12.537 0 22.218-3.498 27.711-6.12 3.114-1.485 5.079-4.62 5.079-8.07v-91.815c0-2.646-1.173-5.157-3.201-6.855" mask="url(#d)"/>
      <path stroke="#5F4735" stroke-width="3" d="M293.8299 61.1544l5.817 4.035c2.763 1.914 6.36 2.13 9.333.561l8.697-4.596 17.667 14.799c2.028 1.698 3.201 4.209 3.201 6.855v91.818c0 3.45-1.971 6.588-5.088 8.073-5.496 2.619-15.174 6.114-27.702 6.114-12.537 0-22.221-3.498-27.714-6.12-3.114-1.485-5.076-4.62-5.076-8.067v-91.818c0-2.646 1.17-5.157 3.198-6.855l17.667-14.799zm44.2506 20.0706c-5.826 16.374-58.827 16.353-64.656-.003" stroke-linecap="round" stroke-linejoin="round" mask="url(#d)"/>
      <path fill="#FF7555" d="M328.4571 15.309l-14.49-6.348c-2.055-1.188-4.59-1.188-6.648 0l-27.495 16.209 11.043 15.243 20.829-7.995" mask="url(#d)"/>
      <path stroke="#5F4735" stroke-width="3" d="M329.3628 16.431l-15.393-7.47c-2.058-1.188-4.593-1.188-6.651 0l-27.492 16.209" stroke-linecap="round" stroke-linejoin="round" mask="url(#d)"/>
      <path fill="#FF7555" d="M290.8659 56.0283l35.619-20.565c2.058-1.188 3.324-3.381 3.324-5.757v-12.153c0-1.278-1.386-2.079-2.493-1.44l-36.45 21.045v18.87z" mask="url(#d)"/>
      <path stroke="#5F4735" stroke-width="3" d="M290.8659 56.0283l35.619-20.565c2.058-1.188 3.324-3.381 3.324-5.757v-12.153c0-1.278-1.386-2.079-2.493-1.44l-36.45 21.045v18.87z" stroke-linecap="round" stroke-linejoin="round" mask="url(#d)"/>
      <path fill="#DFE8EE" d="M311.4339 155.7786c6.6 0 12-5.4 12-12v-21c0-6.6-5.4-12-12-12s-12 5.4-12 12v21c0 6.6 5.4 12 12 12" mask="url(#d)"/>
      <path stroke="#5F4735" stroke-width="3" d="M311.4339 155.7786c6.6 0 12-5.4 12-12v-21c0-6.6-5.4-12-12-12s-12 5.4-12 12v21c0 6.6 5.4 12 12 12z" stroke-linecap="round" stroke-linejoin="round" mask="url(#d)"/>
      <path fill="#FF7555" d="M254.0028 28.5153c4.47-1.473 8.94-2.946 13.413-4.419l1.809-.489c1.584-.312 3.225-.477 4.905-.477 13.443 0 24.342 10.5 24.342 23.448 0 10.731-7.482 19.779-17.697 22.566l-11.967 4.155" mask="url(#d)"/>
      <path fill="#FF7555" d="M274.1298 70.0281l-44.346 50.922-30.501-95.823 62.148 3.039 12.699 41.862z" mask="url(#d)"/>
      <path fill="#F96335" d="M152.6157 81.8949c3.405 30.636 25.716 54.642 49.836 53.616 24.117-1.026 40.905-26.691 37.5-57.33-3.405-30.636-25.716-54.639-49.833-53.616-24.12 1.026-40.908 26.694-37.503 57.33" mask="url(#d)"/>
    </g>
    <g transform="translate(150 18)">
      <mask id="f" fill="#fff">
        <use xlink:href="#e"/>
      </mask>
      <path stroke="#5F4735" stroke-width="3" d="M56.0829 42.1524c2.043 18.381 15.429 32.784 29.901 32.169 14.469-.615 24.543-19.014 22.5-37.398-2.043-18.381-15.429-29.784-29.901-29.169-14.469.615-24.543 16.017-22.5 34.398z" stroke-linecap="round" stroke-linejoin="round" mask="url(#f)"/>
    </g>
    <path stroke="#5F4735" stroke-width="3" d="M152.6157 75.8949c3.405 30.636 25.716 54.642 49.836 53.616 24.117-1.026 40.905-26.691 37.5-57.33-3.405-30.636-25.716-54.639-49.833-53.616-24.12 1.026-40.908 26.694-37.503 57.33zm105.4422-53.7273c2.976-1.593 4.515-2.475 9.357-4.071l1.809-.489c1.584-.312 3.225-.477 4.905-.477 13.443 0 24.342 10.5 24.342 23.448 0 10.731-7.482 19.779-17.694 22.566l-4.806 1.086" stroke-linecap="round" stroke-linejoin="round"/>
    <path stroke="#5F4735" stroke-width="3" d="M278.4639 60.36c3.384-4.029 5.412-9.159 5.412-14.745 0-12.948-10.896-23.448-24.342-23.448m3 .4086l-63.249-3.45m30.4989 95.8251l48.249-54" stroke-linecap="round" stroke-linejoin="round"/>
    <path fill="#EDD194" d="M148.278 274.5l118.416-68.367v-57.906l-255.15-10.575v57.906L148.278 274.5z"/>
    <path fill="#FFE6A7" d="M149.3799 143.3649v130.5l-1.101.636-136.734-78.945v-57.906l137.835 5.715z"/>
    <path stroke="#5E4634" stroke-width="3" d="M11.5437 137.6514v57.906l136.734 78.942 118.416-68.367v-57.906" stroke-linecap="round" stroke-linejoin="round"/>
    <path fill="#B0CC64" d="M148.278 237l118.416-68.367v-20.406l-255.15-10.575v20.406L148.278 237z"/>
    <path fill="#C7E082" d="M148.3797 143.3235v93.618l-.102.06-136.734-78.945v-20.406l136.836 5.673z"/>
    <path stroke="#5E4634" stroke-width="3" d="M11.5437 140.6514v17.406l136.734 78.942 118.416-68.367v-20.406" stroke-linecap="round" stroke-linejoin="round"/>
    <path fill="#B7D86F" d="M148.278 216.5949l118.416-68.367-136.734-78.945-118.416 68.37 136.734 78.942z"/>
    <path stroke="#5E4634" stroke-width="3" d="M148.278 216.5949l118.416-68.367-136.734-78.945-118.416 68.37 136.734 78.942zm0 0v57.906" stroke-linecap="round" stroke-linejoin="round"/>
    <path fill="#C3F270" d="M124.2597 29.8173l.003-.003v-.006c-.69-6.153-7.671-9.375-12.801-5.907l-.003.003v.006c.69 6.156 7.671 9.375 12.801 5.907"/>
    <path stroke="#5E4634" stroke-width="3" d="M124.2597 29.8173l.003-.003v-.006c-.69-6.153-7.671-9.375-12.801-5.907l-.003.003v.006c.69 6.156 7.671 9.375 12.801 5.907z" stroke-linecap="round" stroke-linejoin="round"/>
    <path fill="#C3F270" d="M15.5847 90.6366l.003-.003-.003-.006c-2.949-5.445-10.629-5.808-14.082-.669l-.003.003.003.006c2.952 5.445 10.629 5.808 14.082.669"/>
    <path stroke="#5E4634" stroke-width="3" d="M15.5847 90.6366l.003-.003-.003-.006c-2.949-5.445-10.629-5.808-14.082-.669l-.003.003.003.006c2.952 5.445 10.629 5.808 14.082.669z" stroke-linecap="round" stroke-linejoin="round"/>
    <path fill="#FFE6A7" d="M176.2674 130.8846v26.625c0 2.691-5.289 4.875-11.814 4.875-6.522 0-11.811-2.184-11.811-4.875v-26.625h23.625z"/>
    <path fill="#EDD194" d="M164.3919 130.8846v31.497c-6.495-.015-11.751-2.19-11.751-4.872v-26.625h11.751z"/>
    <path stroke="#5E4634" stroke-width="3" d="M176.2674 130.8846v26.625c0 2.691-5.289 4.875-11.814 4.875-6.522 0-11.811-2.184-11.811-4.875v-26.625h23.625z" stroke-linecap="round" stroke-linejoin="round"/>
    <path fill="#C3F270" d="M170.0895 25.3635l36.129 98.73c1.719 4.695.099 10.05-4.092 12.777-6.051 3.939-17.328 8.265-37.671 8.265s-31.62-4.326-37.671-8.265c-4.191-2.727-5.814-8.082-4.095-12.777l36.132-98.73c1.92-5.25 9.345-5.25 11.268 0"/>
    <path fill="#B7D86F" d="M206.2197 124.0935l-36.129-98.73c-1.923-5.25-9.348-5.25-11.271 0l-2.88 7.875 31.239 85.365c1.719 4.695.099 10.05-4.095 12.777-6.051 3.939-17.328 8.265-37.671 8.265-5.913 0-11.043-.375-15.519-.99 6.552 3.354 17.274 6.48 34.56 6.48 20.343 0 31.62-4.326 37.671-8.265 4.194-2.727 5.814-8.082 4.095-12.777"/>
    <path stroke="#5E4634" stroke-width="3" d="M158.8203 25.3635l-36.129 98.73c-1.719 4.695-.099 10.05 4.092 12.777 6.051 3.939 17.328 8.265 37.671 8.265s31.62-4.326 37.671-8.265c4.191-2.727 5.814-8.082 4.095-12.777l-36.132-98.73c-1.92-5.25-9.345-5.25-11.268 0z" stroke-linecap="round" stroke-linejoin="round"/>
    <path fill="#FFE6A7" d="M95.4633 96.9837v29.784c0 1.29-2.532 2.334-5.658 2.334-3.123 0-5.655-1.044-5.655-2.334v-29.784h11.313z"/>
    <path fill="#EDD194" d="M89.3919 96.9837v32.103c-2.928-.09-5.241-1.089-5.241-2.319v-29.784h5.241z"/>
    <path stroke="#5E4634" stroke-width="3" d="M95.4633 96.9837v29.784c0 1.29-2.532 2.334-5.658 2.334-3.123 0-5.655-1.044-5.655-2.334v-29.784h11.313z" stroke-linecap="round" stroke-linejoin="round"/>
    <path fill="#C3F270" d="M89.8068 117.543c-14.232 0-25.875-11.643-25.875-25.875v-9.327c0-14.232 11.643-25.875 25.875-25.875s25.875 11.643 25.875 25.875v9.327c0 14.232-11.643 25.875-25.875 25.875"/>
    <path fill="#B7D86F" d="M91.4106 56.5479c5.655 4.755 9.27 11.871 9.27 19.794v9.327c0 14.232-11.643 25.875-25.875 25.875-.54 0-1.068-.048-1.602-.081 4.503 3.786 10.296 6.081 16.602 6.081 14.232 0 25.875-11.643 25.875-25.875v-9.327c0-13.692-10.782-24.954-24.27-25.794"/>
    <path stroke="#5E4634" stroke-width="3" d="M89.8065 117.543c14.232 0 25.875-11.643 25.875-25.875v-9.327c0-14.232-11.643-25.875-25.875-25.875s-25.875 11.643-25.875 25.875v9.327c0 14.232 11.643 25.875 25.875 25.875zm-13.0602 5.5353v3.249m151.2501 11.3241v3.249m-75.354 57.9306v3.249m-7.5582-9.0015v3.249m0-43.9992v3.249m38.4123-6.4989v3.249m5.4999.0009v3.249m51-28.8738v5.523m4.875-2.3982v5.523m-173.3751-16.023v3.75" stroke-linecap="round" stroke-linejoin="round"/>
    <path fill="#EBEBEB" d="M110.2056 164.9463h6.684c.735 0 1.335-.6 1.335-1.338v-.555c0-1.776-1.452-3.231-3.231-3.231h-2.895c-1.776 0-3.231 1.455-3.231 3.231v.555c0 .738.603 1.338 1.338 1.338"/>
    <path stroke="#5E4634" stroke-width="3" d="M110.2056 164.9463h6.684c.735 0 1.335-.6 1.335-1.338v-.555c0-1.776-1.452-3.231-3.231-3.231h-2.895c-1.776 0-3.231 1.455-3.231 3.231v.555c0 .738.603 1.338 1.338 1.338z" stroke-linecap="round" stroke-linejoin="round"/>
    <path fill="#C3F270" d="M79.038 11.862l.006-.003v-.003c.852-6.135-5.112-10.983-10.941-8.892l-.006.003v.003c-.855 6.135 5.112 10.983 10.941 8.892"/>
    <path stroke="#5E4634" stroke-width="3" d="M79.038 11.862l.006-.003v-.003c.852-6.135-5.112-10.983-10.941-8.892l-.006.003v.003c-.855 6.135 5.112 10.983 10.941 8.892z" stroke-linecap="round" stroke-linejoin="round"/>
    <path stroke="#5E4634" stroke-width="3" d="M118.6788 60.4803c-26.019 20.136-59.175 30.846-92.058 29.739" stroke-linecap="round" stroke-linejoin="round" stroke-dasharray="6 12"/>
    <path fill="#66C66F" d="M25.0518 43.6473s-3.501 5.499 1.251 7.749c5.772 2.736 16.998-.75 25.248-9.75 0 0-24 9.501-26.499 2.001"/>
    <path stroke="#5F4735" stroke-width="3" d="M25.0518 43.6473s-3.501 5.499 1.251 7.749c5.772 2.736 16.998-.75 25.248-9.75 0 0-24 9.501-26.499 2.001z"/>
    <path fill="#66C66F" d="M36.3018 28.8972s7.26-4.854 16.749 0c10.752 5.499-1.5 12.75-1.5 12.75s-16.248 11.001-26.25 3c-8.286-6.63-3.498-22.749 11.001-15.75"/>
    <path stroke="#5F4735" stroke-width="3" d="M36.3018 28.8972s7.26-4.854 16.749 0c10.752 5.499-1.5 12.75-1.5 12.75s-16.248 11.001-26.25 3c-8.286-6.63-3.498-22.749 11.001-15.75z"/>
    <path fill="#FFF" d="M33.8019 46.8972s-1.251-6.501-7.251-7.749c-6-1.251-.999 9.498 7.251 7.749"/>
    <path stroke="#5F4735" stroke-width="3" d="M33.8019 46.8972s-1.251-6.501-7.251-7.749c-6-1.251-.999 9.498 7.251 7.749z" stroke-linecap="round"/>
    <path fill="#F27557" d="M36.3018 28.8972s2.751 1.251 6 3"/>
    <path stroke="#5F4735" stroke-width="3" d="M36.3018 28.8972s2.751 1.251 6 3" stroke-linecap="round"/>
  </g>
</svg>
